<?xml version="1.0" encoding="utf-8"?>
<!-- Generator: Adobe Illustrator 27.9.0, SVG Export Plug-In . SVG Version: 6.00 Build 0)  -->
<svg version="1.1" id="Layer_1" xmlns="http://www.w3.org/2000/svg" xmlns:xlink="http://www.w3.org/1999/xlink" x="0px" y="0px"
	 width="1024px" height="1024px" viewBox="0 0 1024 1024" style="enable-background:new 0 0 1024 1024;" xml:space="preserve">
<g>
	<path d="M247.17,407.9c3.22-10.94,6.7-21.83,10.96-32.47c20.15-50.31,49.98-93.53,92.92-127.18
		c26.22-20.54,56.53-31.45,88.83-37.52c3.45-0.65,4.32-1.94,4.28-5.15c-0.11-9.33-0.04-18.66,0.12-27.99
		c0.14-8.26,3.59-12.22,11.82-13.2c2.78-0.33,3.51-1.56,3.97-4.01c4.43-23.88,20.28-39.82,44.59-44.62
		c2.87-0.57,3.72-1.48,4.04-4.31c0.78-6.87,3.88-9.54,10.91-9.78c5.83-0.2,11.67-0.24,17.5-0.12c6.44,0.13,9.85,3.14,10.37,9.71
		c0.26,3.31,1.53,4.2,4.6,4.78c23.37,4.41,39.61,20.81,43.81,44.09c0.44,2.43,0.9,3.52,3.77,3.81c8.1,0.82,12.23,5.62,12.39,14.11
		c0.18,9.16,0.14,18.33-0.05,27.49c-0.06,3,0.59,4.41,3.87,4.95c45.42,7.53,83.82,28.22,115.52,61.62
		c28.26,29.77,49.7,63.69,63.32,102.45c0.9,2.56,1.39,4.26,5.05,3.5c57.9-12.05,102.5,25.34,112.26,78.46
		c7.92,43.12-4.6,80.09-39.9,107.28c-23.8,18.33-51.46,21.3-80.34,15.36c-4.7-0.97-9.31-2.31-15.53-3.87
		c4.99,5.17,8.97,9.3,12.95,13.41c10.67,11.01,21.4,21.94,31.98,33.03c7.18,7.52,11.52,15.97,7.37,26.69
		c-1.05,2.72,1.16,3.98,2.6,5.42c17,16.93,34.07,33.79,51.11,50.69c21.65,21.47,43.3,42.93,64.93,64.42
		c2.01,1.99,3.98,4.05,5.77,6.23c7.68,9.31,7.85,19.92-0.08,29.05c-9.4,10.84-20.28,20.23-30.77,29.98
		c-2.7,2.51-3.74,4.44-2.05,8.41c4.12,9.69,6.59,19.89,6.41,30.58c-0.08,4.92-1.07,9.63-3.32,13.97c-1.34,2.58-0.91,3.36,2.01,3.64
		c7.95,0.75,15.91,1.56,23.8,2.79c3.02,0.47,8.02,0.1,8.03,4.07c0.01,3.43-4.77,3.39-7.76,3.92c-18.75,3.36-37.77,3.92-56.73,4.78
		c-57.26,2.59-114.55,4.35-171.86,5.78c-3.31,0.08-6.07,0.98-8.95,3.99c10.41,0.82,20.26,0.6,29.82,3.29
		c-2.61,1.85-5.5,1.89-8.38,2.06c-30.31,1.73-60.64,0.7-90.97,0.83c-43.83,0.19-87.66,0.04-131.48-0.07
		c-8.83-0.02-17.65-0.53-26.48-0.81c-2.01-0.07-3.95-0.41-7-1.95c6.44-3.15,12.56-2.05,18.3-2.48c5.89-0.45,11.84-0.1,17.84-0.73
		c-1.76-2.62-4.08-3.32-6.76-3.26c-76.67,1.66-153.29-0.78-229.92-2.28c-55.81-1.09-111.61-2.7-167.36-5.45
		c-12.63-0.62-25.3-1.26-37.74-3.84c-2.47-0.51-6.28-0.47-6.31-3.66c-0.04-3.3,3.77-3.16,6.26-3.64
		c10.82-2.09,21.78-2.92,32.77-3.51c2.1-0.11,4.2-0.2,6.83-0.32c-7.7-17.17-3.13-33.08,3.12-48.79c1.06-2.67,1.09-4.3-1.13-6.45
		c-9.24-8.9-18.23-18.06-27.36-27.07c-12.13-11.97-12.59-23.89-0.43-36.02c22.06-22,44.45-43.65,66.75-65.41
		c18.24-17.8,36.52-35.57,54.84-53.28c1.69-1.63,2.69-2.91,1.84-5.53c-2.52-7.75-0.59-15,4.17-21.2c2.73-3.55,1.55-4.41-1.78-5.6
		c-4.24-1.51-8.27-3.49-11.92-6.2c-9.95-7.4-14.62-20.05-10.93-31.9c4.87-15.6,12.3-30.21,18.49-45.3
		c7.9-19.25,16.16-38.37,24.49-57.44c1.45-3.33,1.29-5.76-0.76-8.68c-15.19-21.7-30.17-43.53-45.37-65.22
		c-23.8-33.97-47.72-67.86-71.57-101.79c-1.06-1.5-1.91-3.05-4.03-3.39c-13.24-2.07-21.62-17.81-15.21-32.71
		c7.19-16.71,29.3-25.81,44.24-17.84c8.31,4.43,12.81,11.52,12.04,21.21c-0.16,2.07,0.46,3.54,1.53,5.04
		c30.64,42.79,61.29,85.58,91.96,128.34C244.81,406.12,245.22,407.59,247.17,407.9z M451.93,231.82c-1.16-0.93-2.17-0.69-3.14-0.56
		c-24.28,3.31-47.52,10.03-69.17,21.65c-13.74,7.38-21.79,19.21-25.23,34.3c-5.71,25.1-1.89,48.96,9.5,71.77
		c4.81,9.62,11.05,18.26,19.15,26.48c-2.44-12.63-5.25-24.35-5.42-36.51c9.4,24.78,22.78,47.31,37.87,68.89
		c17.66,25.26,40.25,43.04,71.52,48.47c22,3.82,43.94,4.7,66.14,2.22c36.89-4.12,66.19-20.8,87.63-51.25
		c10.28-14.59,19.19-30.02,28.59-45.15c3.77-6.07,7.45-12.19,11.17-18.29c-2.01,10.13-2.37,20.46-5.68,30.21
		c22.83-25.7,34.04-55.08,28.75-89.82c-3.3-21.64-15.22-36.26-35.08-45.13c-12.82-5.73-25.95-10.41-39.52-13.87
		c-8.01-2.04-16.04-4.06-24.87-4.31c0.98,2.15,1.79,3.92,2.6,5.69c7.41,16.36,9.34,33.26,4.6,50.68
		c-6.63,24.36-20.69,43.78-40.48,59.09c-13.06,10.1-28.04,17.33-41.45,26.93c-2.16,1.55-3.37,0.09-4.84-0.83
		c-8.04-5.03-16.01-10.19-24.11-15.13c-15.39-9.39-28.84-20.85-39.24-35.73c-14.33-20.49-21.35-42.74-16.93-67.9
		C445.66,245.97,448.93,238.89,451.93,231.82z M823.67,890.97c0.24-1.39-0.96-1.68-1.64-2.28c-11.4-10.01-22.26-20.58-32.9-31.39
		c-4.26-4.33-8.05-8.99-9.55-14.99c-0.77-3.06-2.54-4.77-5.15-6.24c-12.33-6.97-24.26-14.56-36-22.48
		c-38.72-26.15-75.56-54.66-109.79-86.5c-35.19-32.73-67.51-68.15-98.72-104.63c-5.97-6.98-4.54-7.68-10.92-0.19
		c-16.85,19.79-33.51,39.75-52.27,57.79c-2.95,2.83-3.37,4.39-0.73,7.93c27.48,36.85,54.89,73.75,81.87,110.97
		c5.6,7.72,12.62,10.88,21.44,11.56c3.32,0.26,6.66,0.2,9.99,0.2c39.83,0,79.66-0.08,119.48-0.01c17.5,0.03,32.31,10.52,36.02,26.87
		c3.67,16.21,3.68,32.74-1.18,48.91c-1.72,5.74-1.89,5.69,3.82,5.64c27.49-0.21,54.99-0.41,82.48-0.65
		C821.18,891.47,822.57,891.99,823.67,890.97z M369.95,592.92c-4.79,8.38-6.68,17.2-10.98,24.85c-3.01,5.36-1.94,9.23,1.49,13.83
		c21.71,29.1,43.21,58.35,64.74,87.58c10.76,14.62,21.44,29.3,32.14,43.96c2.23,3.05,2.45,6-0.1,9.09c-2.39,2.9-5.41,3.09-8.61,2.22
		c-2.58-0.7-3.8-3.12-5.25-5.12c-29.63-40.85-59.61-81.45-90.3-121.52c-1.37-1.79-2.42-4.82-4.61-4.81c-2,0-2,3.56-3.63,4.89
		c-3.42,2.79-2.54,5.17-0.18,8.26c8.8,11.51,17.33,23.21,26,34.82c47.76,63.89,95.61,127.72,141.37,193.06
		c7.95,11.35,18.03,16.51,31.58,16.46c39.32-0.13,78.64-0.05,117.97-0.06c8,0,16,0.12,23.99-0.05c18.08-0.39,27.28-8.61,29.87-26.41
		c1.11-7.63,0.96-15.3,0.75-22.95c-0.37-13.24-7.61-20.16-20.86-20.16c-19.83,0.01-39.65,0.1-59.48,0.09
		c-23.32-0.01-46.65,0.26-69.97-0.27c-14.13-0.32-25.42-6.89-33.73-18.55c-6.77-9.49-13.88-18.73-20.79-28.12
		c-41.06-55.8-82.09-111.63-123.19-167.41C382.38,608.73,376.26,601.1,369.95,592.92z M492.35,891.84
		c-6.56-9.13-12.86-17.87-19.14-26.63c-26.21-36.53-52.32-73.14-79.3-109.12c-3.93-5.25-4.03-5.22-8.69-1.17
		c-36.34,31.58-75.31,59.34-118.18,81.41c-2.55,1.31-4.17,3.06-4.87,5.89c-1.45,5.83-4.84,10.58-9.03,14.71
		c-6.17,6.08-12.47,12.02-18.79,17.94c-5.74,5.36-11.59,10.61-18.53,16.96C308.76,891.84,400.16,891.84,492.35,891.84z M402.5,456.7
		c-0.3-9.64-4.15-16.97-13.42-20.9c-26.52-11.23-53.24-21.97-80.08-32.41c-4.57-1.78-9.22-2.5-14.16-1.23
		c-9.1,2.34-14.18,8.47-17.56,16.88c-21.48,53.43-43.94,106.45-66.46,159.44c-5.34,12.57-2.89,18.81,9.66,24.06
		c30.23,12.66,60.52,25.19,90.8,37.72c7.46,3.09,14.75,0.74,19.06-6.15c1.49-2.39,2.74-4.96,3.82-7.57
		c21.79-52.76,43.55-105.54,65.28-158.33C400.96,464.53,402.61,460.85,402.5,456.7z M535.36,573.98c1.47,0.38,1.96-0.43,2.51-0.98
		c8.53-8.43,17.11-16.79,25.53-25.33c19.18-19.44,38.26-38.98,57.4-58.46c5-5.09,7.31-5.11,12.48,0.03
		c3.9,3.87,7.59,7.95,11.43,11.88c44.18,45.31,88.43,90.54,132.48,135.97c6.84,7.06,15,9.38,24.29,9.55c3,0.05,5.69-0.52,7.17-3.48
		c1.6-3.19,0.33-5.92-1.83-8.19c-3.21-3.38-6.68-6.5-9.98-9.79c-53.91-53.73-106.65-108.58-159.74-163.11
		c-5.19-5.33-9.61-5.7-15.04-0.6c-8.61,8.09-17.11,16.31-25.52,24.62c-19.3,19.09-38.53,38.25-57.75,57.42
		c-1.49,1.48-3.43,2.81-3.44,5.29C535.35,557.23,535.36,565.66,535.36,573.98z M706,592.83c0.13-1.35-0.6-1.83-1.17-2.41
		c-1.87-1.9-3.73-3.81-5.58-5.72c-5.54-5.73-5.48-5.67-11.39,0.05c-20.35,19.69-40.73,39.35-61.13,59
		c-5.36,5.16-5.44,5.15-10.77-0.31c-19.44-19.9-38.89-39.79-58.22-59.8c-2.35-2.43-3.89-2.9-6.33-0.28
		c-3.06,3.28-6.47,6.25-9.71,9.36c-5.28,5.08-5.34,5.15-0.33,10.36c23.67,24.6,47.43,49.13,71.04,73.8
		c2.28,2.38,3.59,2.85,6.14,0.38c28.39-27.43,56.88-54.76,85.34-82.12C704.71,594.34,705.43,593.45,706,592.83z M854.22,875.86
		c-0.08-1.8-1.31-2.77-2.34-3.82c-6.53-6.66-13.38-13.04-19.56-20c-10.78-12.13-24.68-21.47-32.6-36.19
		c-0.59-1.1-1.9-1.83-2.91-2.69c-13.49-11.45-28.23-21.21-42.69-31.32c-39.64-27.71-77.87-57.15-113.11-90.35
		c-6.65-6.26-6.61-6.12-13.68-0.03c-1.89,1.63-2.1,2.54-0.26,4.21c3.45,3.14,6.73,6.46,10.12,9.66
		c47.1,44.34,98.74,82.73,153.54,116.96c1.92,1.2,3.56,2.34,3.88,4.79c0.83,6.3,4.46,10.92,8.95,15.12
		c4.62,4.32,8.98,8.92,13.49,13.36c8.3,8.19,16.59,16.39,24.96,24.51c1.81,1.76,3.94,3.32,6.7,1.93
		C851.35,880.67,852.82,878.22,854.22,875.86z M717.97,605.28c1.1,3.45,3.42,5.42,5.37,7.61c22.64,25.37,47.17,48.89,71.41,72.7
		c41.12,40.41,85.55,77.26,126.61,117.72c2.07,2.04,3.33,2.23,5.59-0.05c5.95-6,5.32-4.71,0.28-10.34c-1-1.12-2.02-2.22-3.08-3.28
		c-18.9-19.03-37.75-38.1-56.78-57c-2.48-2.46-2.67-4.26-0.48-6.64c2.02-2.21,4.07-4.39,6.08-6.61c0.85-0.94,1.98-1.66,1.03-3.37
		c-2.56-4.63-5.83-5.21-9.6-1.51c-1.54,1.52-3.05,3.08-4.65,4.53c-4.93,4.47-5.1,4.28-9.36-0.55c-2.4-2.72-2.32-4.82,0.01-7.28
		c2.17-2.3,4.27-4.67,6.4-7.01c1.5-1.64,3.57-2.68,0.67-5.45c-2.71-2.58-4.14-2.24-6.37,0.13c-2.28,2.42-4.9,4.51-7.33,6.78
		c-2.18,2.04-4.29,3.13-6.79,0.39c-2.27-2.49-5-4.8-1.91-8.44c2.59-3.04,5.05-6.21,7.87-9.03c2.62-2.62,0.43-4-0.95-5.77
		c-1.69-2.17-3.06-1.05-4.55,0.27c-2.99,2.65-6.07,5.2-9.05,7.87c-2.44,2.19-4.53,2.14-6.88-0.27c-2.28-2.35-4.11-4.55-1.37-7.65
		c2.75-3.12,5.4-6.34,8.36-9.25c3.41-3.36-0.74-4.51-1.8-6.33c-1.41-2.43-2.75-0.23-3.91,0.74c-3.57,3-7.11,6.03-10.64,9.07
		c-1.83,1.57-3.54,1.41-5.35-0.13c-3.44-2.92-6.73-5.81-2.37-10.83c-2.84-0.34-5.14-0.55-7.42-0.91
		c-13.04-2.06-25.03-5.87-34.46-16.19c-12.8-14.01-26.32-27.37-39.57-40.98C721.76,606.98,720.81,605.21,717.97,605.28z
		 M280.88,650.88c-2.86-2.48-4.8-2.94-7.13-0.08c-5.71,7.02-13.51,10.59-22.16,12.61c-5.75,1.34-11.62,1.92-17.64,2.57
		c0.28,0.92,0.3,1.49,0.59,1.82c3.16,3.6,0.7,5.51-2.06,7.57c-2.7,2.01-5.06,4.6-8.32,0.67c-2.34-2.81-4.99-5.37-7.61-7.93
		c-1.16-1.13-2.63-3.56-4.18-0.7c-1.23,2.26-6.71,3.08-2.78,7.37c2.36,2.58,4.46,5.39,6.79,7.98c2.64,2.93,2.51,5.25-0.57,7.98
		c-2.96,2.61-5.16,2.3-7.6-0.4c-2.12-2.34-4.35-4.59-6.52-6.88c-1.35-1.42-2.79-3.63-4.64-0.9c-1.38,2.04-6.01,3.2-2.32,7.09
		c2.52,2.65,4.73,5.59,7.16,8.33c3.17,3.58,0.24,5.6-1.86,7.91c-2.27,2.51-4.26,1.85-6.31-0.29c-2.42-2.52-5.05-4.85-7.33-7.49
		c-1.66-1.92-2.98-2.51-4.67-0.23c-1.39,1.87-5.1,2.94-1.86,6.3c2.53,2.63,4.89,5.45,7.18,8.3c1.01,1.26,1.9,2.66,0.8,4.54
		c-3.24,5.53-6.38,6.07-11.13,1.68c-1.46-1.35-2.99-2.71-4.14-4.31c-2.53-3.51-4.53-3.68-7.69-0.31c-2.43,2.6-2.67,4.13-0.12,6.43
		c1.48,1.33,2.56,3.11,4.05,4.41c3.96,3.44,3.32,6.04-0.4,9.57c-19.59,18.56-38.91,37.41-58.35,56.13
		c-7.08,6.82-7.02,6.7-1.36,12.97c1.66,1.84,2.75,2.02,4.37,0.28c0.91-0.97,1.95-1.81,2.92-2.73
		c24.55-23.52,50.61-45.33,76.04-67.87C222.18,706.53,251.59,678.99,280.88,650.88z M367.28,402.72
		c-25.15-33.02-39.5-68.94-31.84-112.11c-1.37,1.28-1.99,1.79-2.52,2.37c-10.76,11.86-20.21,24.74-29.05,38.06
		c-8.76,13.19-16.13,27.15-22.75,41.53c-1.35,2.94-0.89,4.07,2.38,4.45c4.29,0.49,8.55,1.29,12.8,2.07
		C320.98,383.59,344.7,391,367.28,402.72z M848.04,758.77c-1.47-1.19-2.92-2.4-4.42-3.55c-28.33-21.61-55.77-44.3-81.87-68.58
		c-19.98-18.6-39.11-38.07-58.23-57.53c-2.33-2.37-3.97-2.87-6.43-0.37c-3.39,3.43-6.94,6.71-10.56,9.89
		c-2.31,2.03-2.76,3.46-0.2,5.91c8.54,8.16,16.67,16.75,25.22,24.9c27.77,26.46,56.95,51.13,90.63,69.94
		C816.69,747.48,831.94,753.89,848.04,758.77z M686.26,406.05c25.49-14.38,52.95-22.64,81.31-28.31c6.02-1.2,6.15-1.22,3.74-7
		c-9.08-21.79-20.89-42.02-35.19-60.79c-4.18-5.48-8.43-10.94-14.12-16.35C728.43,337.61,712.83,373.51,686.26,406.05z
		 M191.77,882.52c3.3-0.07,5.18-1.47,6.89-3.07c14.2-13.34,28.39-26.69,42.55-40.08c3-2.84,4.77-6.37,5.33-10.49
		c0.38-2.85,1.93-4.67,4.49-6.11c42.45-24,81.98-52.2,119.37-83.44c7.58-6.33,7.41-6.34,1.84-14.04c-1.81-2.5-2.84-2.66-5.36-0.62
		c-15.01,12.16-29.93,24.45-45.78,35.51c-25.8,18.02-51.78,35.77-77.69,53.62c-1.38,0.95-3.01,1.76-3.6,3.35
		c-2.57,6.86-8.12,11.29-13.06,16.17c-13.04,12.87-26.22,25.59-39.28,38.44c-1.42,1.4-4.11,2.78-2.69,5.26
		C186.4,879.9,188.69,882.48,191.77,882.52z M895.34,478.55c-0.11-1.76-0.24-4.25-0.48-6.74c-0.04-0.37-0.64-0.99-0.94-0.97
		c-1.97,0.16-3.93,0.54-5.9,0.71c-3.04,0.26-5.2-1.22-6.34-3.9c-1.15-2.72,0.34-4.79,2.26-6.6c1.89-1.77,4.22-1.74,6.58-1.67
		c1.06,0.03,2.62,0.52,2.18-1.53c-0.99-4.54-1.29-9.86-4.49-12.95c-2.03-1.95-6.05,1.45-9.19,2.41c-1.27,0.39-2.47,1.07-3.76,1.34
		c-3.29,0.7-3.59,2.5-2.73,5.47c3.53,12.21,4.35,24.65,1.11,36.99c-7.51,28.63-33.32,48.59-65.46,50.36c-5.71,0.31-8,1.93-8.78,7.55
		c-2.04,14.76-5.78,11.61,10.63,13.46c3.37,0.38,4.61-0.15,3.8-4.16c-1.21-6,3.27-9.82,8.53-7.81c3.5,1.34,4.41,4.45,4.13,7.77
		c-0.26,3.08,0.88,3.74,3.66,3.18c6.39-1.29,12.52-3.26,18.41-6.09c2.61-1.25,3-2.21,1.32-4.73c-3.06-4.6-2.17-8.56,1.87-10.56
		c3.53-1.75,7.53,0.07,9.19,4.94c0.95,2.78,1.89,1.98,3.34,0.92c3.78-2.75,7.37-5.72,10.42-9.29c2.75-3.23,5.13-6.14-0.87-8.78
		c-2.76-1.21-4.05-3.96-2.29-7.14c1.78-3.23,4.94-5.14,7.85-3.01c6.08,4.45,7.08-0.13,8.64-4.07c1.04-2.63,1.7-5.41,2.72-8.04
		c1.04-2.67,0.93-3.86-2.56-4.21c-3.43-0.35-6.43-2.51-5.99-6.65c0.43-4,3.48-6.4,7.01-5.21c6,2.02,5.56-1.73,5.84-5.27
		C895.17,482.62,895.22,480.95,895.34,478.55z M513.97,575.31c0-7.3-0.28-13.62,0.09-19.89c0.32-5.41-1.52-9.33-5.3-13.22
		c-25.54-26.24-50.86-52.7-76.27-79.08c-1.38-1.43-2.78-2.94-4.43-4c-2.68-1.72-6.5-0.53-6.79,2.17
		c-1.31,12.36-7.77,22.92-11.71,34.35c-0.42,1.23-1.71,2.38-0.89,3.89c4.06-3.91,8.1-7.62,11.91-11.55c3.01-3.1,5.72-2.76,8.52,0.1
		c1.05,1.07,2.11,2.12,3.15,3.21c22.31,23.36,44.56,46.76,66.95,70.03C503.65,565.96,507.89,570.89,513.97,575.31z M189.55,758.87
		c1.88,1.21,3.03,0.25,4.22-0.18c17.42-6.22,34.41-13.43,50.4-22.75c30.12-17.56,56.19-40.3,81.25-64.29
		c1.25-1.19,3.98-2.22,1.96-4.74c-1.73-2.16-2.58-5.57-6.78-4.43c-4.13,1.12-8.29,0.48-12.18-1.33c-1.9-0.88-3.08-0.71-4.74,0.9
		c-31.72,30.71-64.93,59.7-100.39,86.06C198.68,751.54,194.23,755.2,189.55,758.87z M448.99,663.2c0.53-0.48,1.17-1.01,1.76-1.59
		c20.39-19.82,40.41-39.99,59.78-60.82c1.69-1.82,1.38-2.93-0.19-4.51c-4.22-4.24-8.41-8.52-12.43-12.96
		c-2.11-2.32-3.7-2.04-5.7,0.06c-3.33,3.49-6.82,6.82-10.24,10.21c-15.36,15.21-30.67,30.47-46.13,45.58
		c-2.53,2.48-2.74,4.28-0.49,7.04c3.99,4.89,7.63,10.06,11.44,15.1C447.36,662.05,447.57,663.22,448.99,663.2z M828.7,773.65
		c-0.62-0.51-0.84-0.82-1.13-0.9c-38.07-10.12-72.65-27.64-105.03-49.76c-22.85-15.61-44.22-33.11-64.81-51.56
		c-2.8-2.51-4.7-2.3-7.07,0.16c-2.73,2.84,0.44,3.75,1.71,4.96c31.4,29.94,65.29,56.77,101.68,80.37
		c17.07,11.07,35.38,19.85,54.27,27.4c2.19,0.88,4.39,2.2,6.93-0.01C819.5,780.62,824.06,777.29,828.7,773.65z M211,773.15
		c2.92,2.08,5.42,3.14,6.86,5.02c7.09,9.23,15.34,8.41,24.28,3.35c0.14-0.08,0.31-0.11,0.47-0.17
		c30.02-12.49,57.49-29.33,83.3-48.98c10.06-7.67,20.13-15.34,29.69-23.65c1.91-1.66,2.71-3.03,0.57-5.25
		c-1.73-1.8-2.96-3.67-5.52-1.19c-1.06,1.03-2.42,1.76-3.61,2.67c-27.97,21.54-57.81,39.9-90.67,53.07
		C241.87,763.82,227.08,768.8,211,773.15z M487.09,268.7c0.4,1.54,0.62,2.49,0.89,3.43c4.53,15.33,12.51,29.07,20.68,42.56
		c8.58,14.15,31.05,13.16,39.39-1.16c3.94-6.76,7.84-13.55,11.61-20.41c4.17-7.59,6.56-15.85,9.17-24.36
		c-7.19,2.2-12.27,5.59-12.89,13.44c-0.22,2.78-1.55,5.45-2.05,8.22c-1.27,7.06-4.94,12.01-11.48,15.27
		c-3.23,1.61-3.55,0.92-3.47-2.1c0.22-8.52-0.62-17.14,3.46-25.4c-10.14,0.61-19.58,0.36-29.95-0.36c5.02,8.3,4.58,16.99,4.68,25.6
		c0.02,1.98,0.06,4.09-2.91,2.51c-5.56-2.96-10.47-6.49-11.87-13.27c-0.67-3.25-2.2-6.37-2.52-9.63c-0.73-7.48-4.65-12-11.66-14.14
		C488.01,268.85,487.84,268.83,487.09,268.7z M540.05,155.86c0.02,0,0.04,0,0.06,0c0-8.98,0.11-17.95-0.03-26.93
		c-0.13-8.01-3.05-10.82-10.87-10.98c-9.58-0.19-13.44,2.48-13.54,10.5c-0.25,18.78-0.07,37.57-0.13,56.35
		c-0.01,2.7,0.84,3.86,3.75,3.75c5.31-0.21,10.65-0.28,15.95-0.01c3.67,0.18,4.98-0.97,4.88-4.75
		C539.9,174.49,540.05,165.17,540.05,155.86z M657.02,589.17c-0.55-0.65-1.14-1.42-1.82-2.11c-16.07-16.37-32.2-32.68-48.15-49.16
		c-2.31-2.38-3.61-1.98-5.57,0.04c-3.35,3.46-6.76,6.87-10.33,10.1c-1.94,1.76-1.95,2.94-0.09,4.8
		c16.54,16.6,32.99,33.28,49.49,49.93c0.75,0.76,1.54,2.29,2.8,1.05c4.5-4.43,8.87-8.98,13.27-13.51
		C656.81,590.1,656.83,589.72,657.02,589.17z M406.83,605.18c2.3-2.14,3.79-3.43,5.17-4.82c12.67-12.72,25.36-25.41,37.95-38.21
		c3.57-3.63,9.88-6.72,9.76-11.23c-0.12-4.45-6.46-7.51-9.62-11.55c-2.71-3.47-4.74-3.35-7.8-0.19
		c-15.37,15.89-30.9,31.63-46.49,47.3c-1.93,1.94-1.7,3.13-0.06,4.92c3.36,3.68,6.6,7.47,9.83,11.26
		C406.1,603.29,406.33,604.16,406.83,605.18z M242.15,451.7c4.03-5.62,3.71-9.71-0.21-14.79c-9.66-12.52-18.5-25.66-27.68-38.55
		c-24.93-35-49.85-70-74.86-104.95c-0.97-1.35-1.52-4.72-4.7-2.1c-2.21,1.81-4.2,3.21-1.51,6.24c1.64,1.85,2.75,4.16,4.19,6.2
		c27.18,38.5,54.37,76.99,81.58,115.47C226.53,429.92,234.21,440.57,242.15,451.7z M715.17,503.24c1.47-16.29,6-31,16.61-43.32
		c0.73-0.84,1.05-1.81,0.55-2.75c-2.39-4.5-2.16-9.31-1.74-14.14c0.19-2.2-0.45-2.4-2.54-1.9c-18.49,4.44-33.35,20.64-35.85,39.27
		c-0.2,1.5-0.4,2.91,0.74,4.22C699.26,491.91,706.16,498.49,715.17,503.24z M745.38,471.47c-9.8,14.61-13.82,29.94-11.89,46.63
		c1.34,11.6,6.69,21.19,16.22,28.18c5.88,4.31,12.69,6.58,19.67,8.25c16.36,3.92,12.1,5.98,16.63-10.63
		c0.13-0.48,0.18-0.98,0.25-1.48c0.17-1.15-0.33-1.72-1.43-2.22c-4.45-2.04-7.37-1.13-9.39,3.32c-0.99,2.17-2.03,3.84-4.81,3.05
		c-9.56-2.74-18.21-6.99-22.95-16.27c-5.46-10.68-5.69-22.1-3.39-33.64c0.84-4.23,3.38-6.56,7.9-5.18c3.2,0.98,4.56-1.01,6.04-3.06
		c1.69-2.34-0.62-3.58-1.46-5.22C754.27,478.25,748.33,476.79,745.38,471.47z M808.62,417.34c1.09-0.32,2.02-0.64,2.97-0.87
		c5.62-1.33,10.88-2.66,9.19-10.67c-0.55-2.59,1.38-5.21,4.59-5.57c3.3-0.37,5.79,0.87,7.17,4.12c0.75,1.78,0.74,3.58,0.65,5.39
		c-0.1,2.2,0.67,3.15,2.97,3.63c9.1,1.91,16.28,7.15,22.92,13.43c2.58,2.44,3.51,7.41,7.29,7.36c3.38-0.05,6.72-2.59,10.08-4.03
		c0.46-0.2,0.89-0.46,1.36-0.62c2.39-0.82,2.68-2.22,1.09-4.08c-2.81-3.28-5.42-6.79-8.52-9.76c-16.72-16-36.34-23.53-59.64-19.71
		c-1.92,0.31-4.69-0.18-4.17,3.4C807.43,405.28,807.1,411.32,808.62,417.34z M553.46,162.16c0.01,0,0.02,0,0.02,0
		c0,7.16,0.04,14.31-0.02,21.47c-0.03,3.32,0.78,5.04,4.79,4.93c10.48-0.31,20.97-0.16,31.45-0.04c3.13,0.04,5.15-0.44,4.73-4.29
		c-0.36-3.31,0.93-7.27-4.88-6.94c-5.31,0.3-10.65,0.05-15.97-0.07c-4.69-0.1-8.42-2.07-10.44-6.43c-1.64-3.55-1.1-7.01,2.15-9.37
		c3.25-2.36,6.53-1.92,9.42,1.01c0.75,0.76,1.17,2.51,2.57,1.78c1.57-0.82,0.66-2.4,0.25-3.56c-3.5-10.04-9.86-17.55-19.58-22.17
		c-3.73-1.77-4.64-0.45-4.55,3.21C553.57,148.52,553.46,155.34,553.46,162.16z M477.89,164.67c1.41,0.1,2.02-1.02,2.75-1.86
		c2.98-3.42,6.46-4.01,10.17-1.47c2.91,1.99,3.37,6.86,1.15,10.45c-2.39,3.87-6.02,5.63-10.48,5.67
		c-5.49,0.05-10.99,0.06-16.48-0.01c-5.23-0.07-3.24,3.93-3.64,6.47c-0.4,2.51-0.11,4.56,3.42,4.52
		c11.32-0.12,22.64-0.08,33.96,0.01c2.65,0.02,3.51-1.07,3.44-3.58c-0.1-3.99,0-7.99,0.01-11.98c0.02-10.65,0.07-21.31,0.03-31.96
		c-0.01-1.56,0.98-3.96-2.46-3.36C490.2,139.26,477.85,154.44,477.89,164.67z M676.65,467.42c0.54-1.35,0.96-2.22,1.24-3.14
		c3.6-11.89,10.5-21.42,20.54-28.69c11.22-8.12,24-12.85,37.1-16.85c1.4-0.43,2.97-0.37,4.02-1.73c3.89-5.05,7.82-10.06,12.25-15.75
		c-10.63,2.74-20.35,5.57-29.68,9.47c-20.41,8.53-38.41,20.01-48.43,40.93C669.65,460.08,669.54,460.03,676.65,467.42z
		 M200.01,789.96c-0.72-0.49-1.41-0.88-2-1.39c-4.17-3.64-8.88-3.9-14.09,0.3c-15.2,12.25-28.9,26.05-41,41.41
		c-0.31,0.39-0.58,0.81-0.84,1.24c-2.77,4.49,0.5,7.24,3.15,9.87c2.89,2.86,4.89,0,6.58-1.84c14.66-15.92,30.12-31.05,45.4-46.37
		C198.02,792.37,198.72,791.45,200.01,789.96z M896.37,835.23c-0.49-2.99-2.14-5.29-3.84-7.55c-7.24-9.57-15.44-18.29-24.08-26.58
		c-4.79-4.6-9.43-9.37-14.96-13.15c-4.08-2.79-7.9-2.65-12.01,0.03c-2.6,1.7-2.39,2.77-0.36,4.86
		c15.19,15.6,30.24,31.33,45.39,46.97c1.4,1.44,2.62,4.1,5.23,2.64C894.43,840.95,895.94,838.32,896.37,835.23z M221.19,810.55
		c-1.02-2.59-2.87-4.75-5.13-6.45c-2.19-1.65-3.41,0.7-4.53,1.8c-16.26,16-32.42,32.12-48.64,48.17c-2.28,2.26-2.45,4.34,0.29,6.14
		c2.54,1.67,4.28,6.6,8.5,2.48c4.05-3.95,8.06-7.96,12.05-11.97c10.8-10.87,21.62-21.73,32.36-32.66
		C218.18,815.95,220.42,813.87,221.19,810.55z M877.25,856.76c-0.89-1.13-1.71-2.38-2.73-3.42c-15.4-15.66-30.89-31.23-46.19-46.98
		c-3.15-3.25-5.24-2.72-8.03,0.33c-2.67,2.92-2.12,5.27,0.25,7.79c9.71,10.28,19.41,20.56,29.13,30.83
		c5.37,5.68,10.71,11.39,16.19,16.96c1.18,1.2,2.78,2.91,4.75,1.35C873.04,861.71,875.98,860.22,877.25,856.76z M749.44,443.54
		c14.56-6.96,28.73-13.83,43.42-19.5c2.39-0.92,2.66-2.61,2.45-4.77c-0.47-4.96-0.96-9.93-1.25-14.9c-0.21-3.52-1.27-4.51-4.9-3.12
		c-15.51,5.94-27.47,16-35.77,30.29C751.38,435.02,749.25,438.69,749.44,443.54z M849.36,447.65c0.19,3.61,0.42,7.21,0.56,10.82
		c0.31,8.12,1.7,16.35-1.1,24.27c-6.15,17.4-19.67,26.57-36.37,32.08c-1.58,0.52-3.2,0.92-4.77,1.45c-3.1,1.05-2.44,3.79-2.17,5.9
		c0.34,2.68,2.66,1.27,4.02,1.09c6.46-0.85,12.73-2.56,18.65-5.31C856,505.09,866.74,475.76,849.36,447.65z M596.1,251
		c-2.39,2.92-3.94,6.01-4.13,9.8c-0.45,9.11-3.42,17.57-6.96,25.87c-3.72,8.73-7.94,17.19-12.87,25.32
		c-3.59,5.92-6.61,12.13-8.24,19.62C588.18,312.1,605,278.38,596.1,251z M491.06,330.71c0.53-1.19-0.05-2.23-0.3-3.36
		c-2.43-10.64-9.34-19.01-14.32-28.34c-6.53-12.25-12.3-24.68-12.11-39.04c0.04-3.12-1.78-5.66-4.06-8.22
		C452.72,279.97,467.02,311.05,491.06,330.71z M164.36,887.67c0.17-0.45,0.34-0.91,0.5-1.36c-10.86-9.83-21.43-19.95-31.56-30.53
		c-1.7-1.78-2.65-1.55-3.25,0.94c-1.2,5.02-2.63,10-2.89,15.19c-0.38,7.45,2.64,11.94,10.02,13.07
		C146.18,886.35,155.3,886.82,164.36,887.67z M570.29,483.72c-25.06,3.88-50.18,4.2-75.72,1.06c1.33,4.84,4.42,6.94,8.57,7.8
		c14.49,2.99,29.06,2.86,43.68,1.19C555.51,492.77,563.84,490.84,570.29,483.72z M520.88,235.79c0-0.5,0.01-1,0-1.5
		c-0.14-8.75-0.14-8.65-8.72-8.76c-7.03-0.09-14.46,1.11-19.58-5.88c-0.83-1.13-3.22-1.73-4.63-0.83c-1.58,1.02-0.31,2.74,0.19,4.05
		c3.98,10.47,11.41,17.31,22.04,20.74C521.03,247.12,521.03,247.13,520.88,235.79z M939.18,786.28c-0.22-1.56-1.14-2.76-2.15-3.85
		c-16.44-17.64-33.55-34.62-50.64-51.62c-1.89-1.88-3.09-1.14-4.54,0.29c-2.64,2.63-0.18,4.2,1.32,5.73
		c9.44,9.61,18.91,19.18,28.47,28.67c7.55,7.49,15.23,14.85,22.89,22.24c0.9,0.86,1.79,2.21,3.36,1.11
		C938.75,788.23,939.21,787.37,939.18,786.28z M535.07,235.36c0,2.5,0.06,5-0.02,7.49c-0.06,2.21,0.88,2.74,3.03,2.6
		c12.65-0.83,25.46-10.45,29.46-22.34c0.45-1.35,1.7-3.04,0.2-4.1c-1.27-0.9-3.15,0.03-4.1,1.02c-5.31,5.51-12.08,5.68-19,5.65
		C534.88,225.63,534.88,225.67,535.07,235.36z M871.34,887.54c8.55-0.86,17.15-1.41,25.64-2.67c6.68-1,9.74-5.16,9.37-11.85
		c-0.2-3.63-1.04-7.21-1.47-10.83c-0.52-4.34-2.12-4.54-5.13-1.7C890.37,869.35,881.08,878.31,871.34,887.54z M589.37,210.27
		c0,0.18-0.06-0.66,0.01-1.48c0.18-2.18,0.08-3.91-2.93-3.93c-3.07-0.02-2.97,1.85-2.97,3.95c-0.04,18.61-7.69,33.01-23.73,42.74
		c-6.64,4.03-13.84,6.37-21.59,7.06c-1.87,0.17-3.79,0.37-3.45,3.11c0.25,1.97,0.99,2.82,3.24,2.52
		C569.59,260.08,587.79,239.04,589.37,210.27z M152.42,728.79c-0.73,0.68-1.57,1.45-2.39,2.24c-15.95,15.56-31.9,31.11-47.82,46.7
		c-1.89,1.86-3.69,3.84-5.3,5.94c-1.11,1.45-1.12,3.33,0.41,4.48c1.5,1.12,2.33-0.62,3.21-1.44c12.32-11.65,24.65-23.28,36.9-35.01
		c5.76-5.51,11.38-11.18,17.01-16.84c0.85-0.86,2.26-1.82,1.06-3.36C154.7,730.48,154.13,729.17,152.42,728.79z M518.63,264.65
		c0.56,0.09,1.55-0.3,1.77-2.41c0.36-3.44-2-3.3-4.1-3.45c-9.84-0.68-18.42-4.58-25.85-10.78c-11.88-9.91-18.29-22.63-18.24-38.32
		c0.01-2.37,0.26-4.7-3.48-4.46c-3.77,0.25-2.49,2.83-2.55,4.71c-0.25,7.84,1.87,15.16,5.22,22.15
		C480.68,251.47,496.53,261.59,518.63,264.65z M527.68,205.2c-12.48,0-24.96-0.04-37.44,0.05c-1.57,0.01-4.14-1.17-4.33,1.76
		c-0.18,2.71,2.24,2.34,3.99,2.53c25.06,2.62,50.12,3.4,75.17-0.11c1.59-0.22,4.25,0.6,4.17-2.24c-0.1-3.37-3-1.88-4.62-1.9
		C552.31,205.15,539.99,205.21,527.68,205.2z M788,522.7c2.21,0.78,3.09-0.55,3.18-2.79c0.09-2.04,0.91-4.08-2.55-4.71
		c-8.34-1.53-14.67-5.52-17.21-14.49c-0.74-2.61-3.18-5.99-6.58-5.89c-4.06,0.13-6.37,4.93-4.94,8.9
		C763.5,513.65,776.08,522.24,788,522.7z M129.04,825.1c13.55-17.75,29.5-33.3,45.86-49.7c-2.81,0.03-3.92,1.1-5.14,1.88
		c-15.86,10.15-28.68,23.69-41.38,37.34C123.76,819.57,123.95,819.75,129.04,825.1z M237.38,646.65c6.03-0.13,11.82-1.35,17.23-4.13
		c0.86-0.44,1.96-0.85,1.92-2.02c-0.05-1.25-1.33-1.37-2.18-1.69c-6.35-2.4-12.72-4.73-19.09-7.09c-1.48-0.55-2.92-0.83-3.91,0.85
		c-1.84,3.12-4.38,6.19-2.8,10.1C230.14,646.62,233.75,646.82,237.38,646.65z M549.69,336.95c-14.85,8.3-29.03,8.48-43.27,0.57
		c3.61,5.57,8.94,9.03,13.81,12.94c7.31,5.87,7.36,5.83,14.62,0.3c3.05-2.32,6.12-4.62,9.04-7.09
		C545.82,342.03,548.42,340.93,549.69,336.95z M864.28,776.24c0.55,0.61,1.06,1.25,1.65,1.82c14.19,13.8,28.22,27.74,39.43,44.2
		c1.19,1.75,2.08,1.83,3.28,0.11c0.97-1.38,3.81-1.89,1.2-4.55c-9.65-9.86-18.94-20.07-28.69-29.82
		C876.29,783.16,870.91,778.78,864.28,776.24z M112.29,278.03c0.02,1.5-0.12,3.17,1.41,4.02c1.68,0.94,2.75-0.51,3.89-1.41
		c3.12-2.49,6.25-4.96,9.31-7.51c0.94-0.78,2.82-1.09,2.29-2.82c-0.51-1.66-1.9-2.69-3.68-2.99
		C120.66,266.51,112.42,273.21,112.29,278.03z M827.38,482.03c-1.29-2.3-2.97-5.73-5.68-5.62c-2.38,0.09-6.36,2.35-6.11,5.23
		c0.2,2.4,2.48,5.3,5.19,6.72C821.76,488.88,827.41,483.54,827.38,482.03z M815.25,467.21c0.04-1.15-5.16-7.55-5.82-7.25
		c-2.55,1.17-6.65,3.1-6.31,4.78c0.55,2.75,3.3,6.06,5.92,7.06C810.9,472.52,813.67,469.36,815.25,467.21z M787.89,462.69
		c-1.97-2.83-3.54-6.32-6.62-7.1c-2.51-0.63-4.39,2.38-5.69,4.64c-0.49,0.85,5.21,7.56,6.08,7.23
		C784.12,466.53,786.03,464.78,787.89,462.69z M802.65,451.35c-0.05-1.83-5.53-8.1-6.48-7.64c-2.35,1.16-4.44,2.85-5.41,5.4
		c-0.33,0.88,5.47,7.2,6.05,6.81C798.96,454.5,801.29,453.24,802.65,451.35z M800.29,478.27c-2.16-2.18-3.18-6.03-6.05-6.54
		c-2.04-0.36-4.56,2.28-5.57,4.84c-0.41,1.04,4.83,7.24,5.69,6.89C796.8,482.45,798.92,480.95,800.29,478.27z M772.77,473.44
		c-1.75-2.61-3.48-5.75-6.43-6.4c-1.9-0.42-3.95,2.15-4.66,4.48c-0.33,1.09,5.21,7,6.21,6.64
		C770.1,477.37,771.88,475.92,772.77,473.44z M823.49,448.47c-0.89,2.55-5.17,2.47-4.32,5.47c0.78,2.77,2.39,6.35,5.78,6.51
		c1.65,0.08,5.05-2.4,4.41-4.45C828.53,453.32,826.72,450.48,823.49,448.47z M779.77,482.59c-2.1,1.83-5.53,2.67-4.96,4.95
		c0.65,2.6,2.59,5.89,5.51,6.32c1.65,0.24,5.13-2.23,4.63-4.26C784.32,487.05,781.66,484.99,779.77,482.59z M806.29,487.07
		c-1.9,2.42-5.49,3.04-5.54,5.8c-0.04,2.22,1.98,5.55,4.09,5.62c2.15,0.06,5.68-2.04,5.72-4.5
		C810.59,491.84,808.01,489.66,806.29,487.07z M812.19,444.81c1.54-1.74,4.98-2.06,4.68-4.48c-0.24-1.98-1.68-4.9-4.63-4.88
		c-2.05,0.02-5.17,1.11-5.03,2.86C807.41,440.82,809.43,443.22,812.19,444.81z M836.55,475.69c0.19-4.01,0.33-7.03,0.47-10.18
		C829.96,468.1,829.92,468.49,836.55,475.69z M793.69,502.27c-0.9-1.42-0.75-3.87-2.59-3.34c-1.92,0.55-3.92,1.97-4.28,4.37
		c-0.14,0.94,0.54,2.38,1.66,1.84C790.22,504.3,792.46,504.08,793.69,502.27z M837.43,449.44c0-4.24,0.92-7.35-0.47-10.37
		C829.85,442.23,834.42,445.28,837.43,449.44z"/>
	<path d="M496.45,818.44c-0.21,4.13-2.08,6.27-5.12,7.43c-3.56,1.35-6.59,0.39-8.8-2.63c-3.73-5.08-7.33-10.26-10.98-15.4
		c-3.55-5.01-7.21-9.95-10.61-15.06c-2.65-3.98-2.09-7.84,1.08-10.16c3.34-2.44,8.64-1.94,11.16,1.53
		c7.42,10.19,14.65,20.53,21.92,30.83C495.99,816.22,496.53,817.62,496.45,818.44z"/>
	<path d="M682.32,854.31c-5.16,0-10.32,0.02-15.48-0.01c-4.29-0.02-7.14-1.91-7.21-6.46c-0.06-4.32,2.18-6.94,6.68-6.98
		c10.65-0.09,21.31-0.23,31.96-0.02c4.66,0.09,7.41,3.27,7.01,7.34c-0.43,4.44-3.16,6.28-7.48,6.23
		c-5.16-0.06-10.32-0.02-15.49-0.02C682.32,854.38,682.32,854.35,682.32,854.31z"/>
	<path d="M627.97,854.36c-4.65-0.01-9.3-0.04-13.95,0c-4.38,0.04-6.92-2.18-7.42-6.4c-0.44-3.66,2.52-6.92,6.72-7.04
		c9.62-0.27,19.26-0.34,28.88-0.18c4.3,0.07,7.21,3.25,6.86,6.96c-0.4,4.2-2.68,6.67-7.15,6.66
		C637.27,854.36,632.62,854.37,627.97,854.36z"/>
	<path d="M580.09,854.33c-3.15,0-6.3,0.07-9.45-0.02c-4.31-0.12-6.99-2.37-7.04-6.71c-0.05-4.29,2.39-6.81,6.81-6.88
		c6.3-0.1,12.6-0.2,18.89,0.01c4.87,0.17,7.79,2.91,7.79,6.68c0.01,4-3.13,6.74-8.06,6.91
		C586.06,854.41,583.07,854.33,580.09,854.33z"/>
	<path d="M336.73,525.71c-3.01,5.74-5.79,11.14-8.68,16.49c-11.14,20.67-23.32,40.73-35.79,60.61c-1.15,1.83-2.34,3.66-3.75,5.28
		c-3.05,3.5-7.06,3.84-10.6,1.03c-3.55-2.82-3.49-6.11-1.21-9.7c11.76-18.56,22.77-37.58,33.57-56.71
		c15.9-28.16,29.8-57.27,41.98-87.23c0.87-2.15,1.89-4.28,3.14-6.22c2.02-3.13,4.86-4.44,8.59-3.06c3.27,1.21,6.61,2.26,9.82,3.61
		c7.87,3.31,9.66,7.46,6.45,15.36c-8.65,21.27-17.4,42.5-26.11,63.74c-11.29,27.56-23.6,54.68-35.76,81.85
		c-0.68,1.52-1.36,3.04-2.16,4.49c-3.29,6.02-7.48,7.64-12.62,4.93c-5.33-2.81-6.11-5.88-2.78-12.51
		c12.69-25.3,23.69-51.37,34.94-77.32C336.31,529.08,337.5,527.88,336.73,525.71z"/>
	<path d="M238.39,592.74c-6.43-0.21-9.17-5.16-6.76-10.68c20.63-47.46,40.35-95.29,59.66-143.3c1.37-3.39,2.53-6.87,3.98-10.23
		c2.74-6.33,6.29-7.7,12.79-5.13c6.96,2.74,8.73,6.05,6.15,12.7c-10.55,27.15-21.62,54.08-33.49,80.68
		c-10.59,23.73-22.46,46.8-35.18,69.44C243.71,589.45,241.9,592.69,238.39,592.74z"/>
	<path d="M341.48,441.04c-0.35,3.41-1.77,6.26-2.93,9.2c-18.52,47.07-41.47,91.92-67.52,135.22c-2.23,3.71-4.31,7.51-6.61,11.18
		c-3,4.79-6.01,5.87-9.83,3.77c-4.02-2.22-4.72-5.49-2.01-10.71c8.43-16.25,17.28-32.29,25.35-48.72
		c15.79-32.14,29.22-65.31,42.47-98.55c0.8-2.01,1.62-4.02,2.57-5.96c2.07-4.22,5.74-4.93,9.75-3.75
		C337,433.97,340.61,436.28,341.48,441.04z"/>
</g>
<g>
</g>
<g>
</g>
<g>
</g>
<g>
</g>
<g>
</g>
<g>
</g>
<g>
</g>
<g>
</g>
<g>
</g>
<g>
</g>
<g>
</g>
<g>
</g>
<g>
</g>
<g>
</g>
<g>
</g>
</svg>
