<?xml version="1.0" encoding="UTF-8"?>
<svg version="1.1" xmlns="http://www.w3.org/2000/svg" width="50" height="75">
<path d="M0 0 C3 1.125 3 1.125 5 3 C5.8125 6.1875 5.8125 6.1875 6 9 C8.475 9.495 8.475 9.495 11 10 C11 10.66 11 11.32 11 12 C10.34 12.33 9.68 12.66 9 13 C9.66 13.66 10.32 14.32 11 15 C11.3125 18 11.3125 18 11 21 C8 23 8 23 5.3125 22.625 C4.549375 22.41875 3.78625 22.2125 3 22 C3.33 22.33 3.66 22.66 4 23 C4.04125 23.78375 4.0825 24.5675 4.125 25.375 C4.79963737 28.42287331 4.79963737 28.42287331 8.5625 29.8125 C9.696875 30.204375 10.83125 30.59625 12 31 C12 31.66 12 32.32 12 33 C12.66 33 13.32 33 14 33 C13.67 34.98 13.34 36.96 13 39 C11.68 39 10.36 39 9 39 C8.7525 40.093125 8.505 41.18625 8.25 42.3125 C6.97460716 46.07490888 6.47806966 47.26096517 3 49 C1.68 49 0.36 49 -1 49 C-0.175 49.639375 0.65 50.27875 1.5 50.9375 C4.47693867 54.58424987 4.6759375 56.41845769 4.44140625 60.98046875 C4 63 4 63 2 64.9375 C1.34 65.288125 0.68 65.63875 0 66 C0 66.66 0 67.32 0 68 C1.65 68.66 3.3 69.32 5 70 C5 70.66 5 71.32 5 72 C3.948125 72.12375 2.89625 72.2475 1.8125 72.375 C-1.84016455 72.8072057 -1.84016455 72.8072057 -4.375 74.0625 C-8.19749958 75.42767842 -11.97616337 75.33993119 -16 75 C-16.66 74.67 -17.32 74.34 -18 74 C-17.505 72.515 -17.505 72.515 -17 71 C-16.34 71 -15.68 71 -15 71 C-15.33 69.35 -15.66 67.7 -16 66 C-16.66 66 -17.32 66 -18 66 C-18.61875 64.6696875 -18.61875 64.6696875 -19.25 63.3125 C-20.80906168 59.98523842 -20.80906168 59.98523842 -23.1875 57.75 C-26.03022418 53.43690124 -25.8307491 50.02694166 -25 45 C-23.18385697 38.27471272 -21.12235004 31.24470008 -18 25 C-18.556875 24.82984375 -19.11375 24.6596875 -19.6875 24.484375 C-32.62376238 20.37623762 -32.62376238 20.37623762 -36 17 C-35.71269945 14.66055264 -35.38063221 12.3260857 -35 10 C-30.34837514 10.55791603 -26.8387436 11.84941801 -22.6875 14 C-21.63949219 14.53625 -20.59148438 15.0725 -19.51171875 15.625 C-17 17 -17 17 -16 18 C-15.34 16.68 -14.68 15.36 -14 14 C-14.33 13.67 -14.66 13.34 -15 13 C-15.59259259 5.77037037 -15.59259259 5.77037037 -13.125 2.5625 C-8.86600173 -0.56911638 -5.15760057 -0.48101974 0 0 Z M3 36 C2.34 37.32 1.68 38.64 1 40 C2.32 39.34 3.64 38.68 5 38 C4.34 37.34 3.68 36.68 3 36 Z M-8 64 C-8 64.66 -8 65.32 -8 66 C-8.66 66 -9.32 66 -10 66 C-10.33 67.65 -10.66 69.3 -11 71 C-9.68 71 -8.36 71 -7 71 C-7 70.34 -7 69.68 -7 69 C-6.34 69 -5.68 69 -5 69 C-5.33 67.35 -5.66 65.7 -6 64 C-6.66 64 -7.32 64 -8 64 Z " fill="#3F3957" transform="translate(36,0)"/>
<path d="M0 0 C0.33 0.66 0.66 1.32 1 2 C2.11375 2.12375 3.2275 2.2475 4.375 2.375 C8 3 8 3 10 4.875 C11 7 11 7 10 10 C9.01 9.67 8.02 9.34 7 9 C7.103125 10.2375 7.20625 11.475 7.3125 12.75 C7.31870226 16.24807694 7.22260172 16.75266476 4.75 19.5 C2 21 2 21 -2 21 C-1.175 21.639375 -0.35 22.27875 0.5 22.9375 C3.83579155 27.02384465 3.4971834 29.92872936 3 35 C-1.15771494 36.31538327 -3.8879297 35.34433068 -8 34 C-8.12375 33.360625 -8.2475 32.72125 -8.375 32.0625 C-8.58125 31.381875 -8.7875 30.70125 -9 30 C-9.66 29.67 -10.32 29.34 -11 29 C-10.34 29.66 -9.68 30.32 -9 31 C-9.375 33.625 -9.375 33.625 -10 36 C-12.64 36 -15.28 36 -18 36 C-18.2475 35.278125 -18.495 34.55625 -18.75 33.8125 C-19.84901053 30.90345864 -19.84901053 30.90345864 -22.125 28.8125 C-24.94834283 24.57748575 -24.70606628 20.94925309 -24 16 C-22.88255815 11.91074081 -21.52222622 7.95506992 -20 4 C-15.85554992 4.73384023 -12.75317461 6.08511499 -9 8 C-4.55781671 9.87736455 -4.55781671 9.87736455 0 9 C0 9.99 0 10.98 0 12 C1.56249809 10.68798827 1.56249809 10.68798827 3 9 C3 8.01 3 7.02 3 6 C0.03 5.505 0.03 5.505 -3 5 C-3 3 -3 3 -1.5 1.375 C-1.005 0.92125 -0.51 0.4675 0 0 Z " fill="#404967" transform="translate(37,28)"/>
<path d="M0 0 C0.66 0 1.32 0 2 0 C2.33 0.66 2.66 1.32 3 2 C3 1.34 3 0.68 3 0 C9.625 -0.25 9.625 -0.25 13 2 C16.12521833 2.16699232 16.12521833 2.16699232 19 2 C19.33 1.34 19.66 0.68 20 0 C24.82029598 3.85623679 24.82029598 3.85623679 25.33203125 7.11328125 C25.3145776 9.07856214 25.16596091 11.04166127 25 13 C22.03 12.67 19.06 12.34 16 12 C15.67 10.68 15.34 9.36 15 8 C14.34 7.67 13.68 7.34 13 7 C13.66 7.66 14.32 8.32 15 9 C14.625 11.625 14.625 11.625 14 14 C11.36 14 8.72 14 6 14 C5.7525 13.278125 5.505 12.55625 5.25 11.8125 C4.1021046 8.88784777 4.1021046 8.88784777 1.875 6.4375 C0 4 0 4 0 0 Z " fill="#F7F7F8" transform="translate(13,50)"/>
<path d="M0 0 C2.46800047 1.15173355 4.04783565 2.04783565 6 4 C5.67 4.99 5.34 5.98 5 7 C6.11375 7.12375 7.2275 7.2475 8.375 7.375 C12 8 12 8 14 10 C13.01 10.495 13.01 10.495 12 11 C12 11.66 12 12.32 12 13 C13.65 13.66 15.3 14.32 17 15 C17 15.66 17 16.32 17 17 C15.948125 17.12375 14.89625 17.2475 13.8125 17.375 C10.15983545 17.8072057 10.15983545 17.8072057 7.625 19.0625 C3.80250042 20.42767842 0.02383663 20.33993119 -4 20 C-4.66 19.67 -5.32 19.34 -6 19 C-5.505 17.515 -5.505 17.515 -5 16 C-4.34 16 -3.68 16 -3 16 C-3.66 13.69 -4.32 11.38 -5 9 C-4.34 9 -3.68 9 -3 9 C-2.67 7.68 -2.34 6.36 -2 5 C-2 6.32 -2 7.64 -2 9 C-0.35 8.67 1.3 8.34 3 8 C2.45276317 4.62537285 1.9451 2.91765 0 0 Z M4 9 C4 9.66 4 10.32 4 11 C3.34 11 2.68 11 2 11 C1.67 12.65 1.34 14.3 1 16 C2.32 16 3.64 16 5 16 C5 15.34 5 14.68 5 14 C5.66 14 6.32 14 7 14 C6.67 12.35 6.34 10.7 6 9 C5.34 9 4.68 9 4 9 Z " fill="#45405F" transform="translate(24,55)"/>
<path d="M0 0 C5.54949612 0.50449965 9.41926195 2.61616285 14.125 5.375 C14.82753906 5.77460938 15.53007812 6.17421875 16.25390625 6.5859375 C23.38780865 10.68557139 23.38780865 10.68557139 26 13 C26 13.66 26 14.32 26 15 C25.01 15 24.02 15 23 15 C23.56589844 15.17015625 24.13179687 15.3403125 24.71484375 15.515625 C25.44832031 15.75796875 26.18179687 16.0003125 26.9375 16.25 C27.66839844 16.48203125 28.39929688 16.7140625 29.15234375 16.953125 C31 18 31 18 31.75390625 20.109375 C31.83511719 20.73328125 31.91632812 21.3571875 32 22 C25.89357521 22.78287497 21.99540421 20.10825151 17 17 C17 16.01 17 15.02 17 14 C17.66 13.67 18.32 13.34 19 13 C18.4652002 12.76289307 17.93040039 12.52578613 17.37939453 12.28149414 C14.96104794 11.20898029 12.54302048 10.13574885 10.125 9.0625 C9.28324219 8.68931641 8.44148437 8.31613281 7.57421875 7.93164062 C6.36572266 7.39506836 6.36572266 7.39506836 5.1328125 6.84765625 C4.38918457 6.51773682 3.64555664 6.18781738 2.87939453 5.84790039 C1.57377635 5.25886273 0.28112582 4.64056291 -1 4 C-0.67 2.68 -0.34 1.36 0 0 Z " fill="#8D7872" transform="translate(2,12)"/>
<path d="M0 0 C0 0.66 0 1.32 0 2 C1.98 2.66 3.96 3.32 6 4 C5.67 5.65 5.34 7.3 5 9 C-0.75 8.125 -0.75 8.125 -3 7 C-3 8.32 -3 9.64 -3 11 C-2.34 11.33 -1.68 11.66 -1 12 C-1.6875 13.9375 -1.6875 13.9375 -3 16 C-5.5 16.875 -5.5 16.875 -8 17 C-8.66 16.34 -9.32 15.68 -10 15 C-10 14.34 -10 13.68 -10 13 C-10.515625 12.401875 -11.03125 11.80375 -11.5625 11.1875 C-13 9 -13 9 -12.6875 6.25 C-12.460625 5.5075 -12.23375 4.765 -12 4 C-8.25 2.875 -8.25 2.875 -6 4 C-6 3.01 -6 2.02 -6 1 C-4 0 -4 0 0 0 Z " fill="#DEC4B9" transform="translate(39,12)"/>
<path d="M0 0 C2 2 2 2 2.125 5.125 C2.08375 6.07375 2.0425 7.0225 2 8 C2.66 8.33 3.32 8.66 4 9 C1.03 9.66 -1.94 10.32 -5 11 C-5 11.99 -5 12.98 -5 14 C-5.66 13.67 -6.32 13.34 -7 13 C-6.67 12.34 -6.34 11.68 -6 11 C-8.97 11 -11.94 11 -15 11 C-15.28027248 7.35645778 -15.44312908 4.822954 -13.6875 1.5625 C-9.42963533 -0.91300271 -4.81400013 -0.65714922 0 0 Z " fill="#324F6D" transform="translate(38,2)"/>
<path d="M0 0 C1.65 0 3.3 0 5 0 C5 0.66 5 1.32 5 2 C5.804375 2.144375 6.60875 2.28875 7.4375 2.4375 C10 3 10 3 11 4 C11.25 6.9375 11.25 6.9375 11 10 C8 12 8 12 5.3125 11.625 C4.549375 11.41875 3.78625 11.2125 3 11 C3.33 11.33 3.66 11.66 4 12 C4.04125 12.78375 4.0825 13.5675 4.125 14.375 C4.79963737 17.42287331 4.79963737 17.42287331 8.5625 18.8125 C9.696875 19.204375 10.83125 19.59625 12 20 C12 20.66 12 21.32 12 22 C12.66 22 13.32 22 14 22 C13.67 23.98 13.34 25.96 13 28 C11.68 28 10.36 28 9 28 C9.66666667 26.66666667 10.33333333 25.33333333 11 24 C10.34 23.01 9.68 22.02 9 21 C7.68 21 6.36 21 5 21 C5 20.34 5 19.68 5 19 C2.6568787 19.25561323 0.32156597 19.59270772 -2 20 C-2.33 20.66 -2.66 21.32 -3 22 C-3 21.01 -3 20.02 -3 19 C-3.7425 18.87625 -4.485 18.7525 -5.25 18.625 C-7.80141485 18.04513299 -9.7267573 17.26291261 -12 16 C-11.34 15.67 -10.68 15.34 -10 15 C-9.34 15.33 -8.68 15.66 -8 16 C-9.32 14.35 -10.64 12.7 -12 11 C-11.01 10.67 -10.02 10.34 -9 10 C-7.828125 11.5625 -6.65625 13.125 -5.484375 14.6875 C-3.8308053 16.44160248 -3.8308053 16.44160248 0 16 C0.66 15.01 1.32 14.02 2 13 C1.01 12.67 0.02 12.34 -1 12 C-0.67 10.68 -0.34 9.36 0 8 C2.64 8.33 5.28 8.66 8 9 C8 7.68 8 6.36 8 5 C6.35 4.34 4.7 3.68 3 3 C3 2.34 3 1.68 3 1 C2.01 0.67 1.02 0.34 0 0 Z " fill="#534A62" transform="translate(36,11)"/>
<path d="M0 0 C3 1.125 3 1.125 5 3 C5.8125 6.1875 5.8125 6.1875 6 9 C8.475 9.495 8.475 9.495 11 10 C11 10.66 11 11.32 11 12 C9.02 12 7.04 12 5 12 C3.515 7.545 3.515 7.545 2 3 C0.22992286 2.91885894 -1.54122098 2.86074495 -3.3125 2.8125 C-4.29863281 2.77769531 -5.28476562 2.74289062 -6.30078125 2.70703125 C-8.99826734 2.77871198 -8.99826734 2.77871198 -10.8125 4.28125 C-12.67369303 6.97508202 -12.6982375 9.8013175 -13 13 C-10.03 13 -7.06 13 -4 13 C-4 13.66 -4 14.32 -4 15 C-5.2065625 15.3403125 -5.2065625 15.3403125 -6.4375 15.6875 C-7.283125 16.120625 -8.12875 16.55375 -9 17 C-9.89386164 19.54775306 -9.89386164 19.54775306 -10 22 C-12.4375 21.625 -12.4375 21.625 -15 21 C-15.33 20.34 -15.66 19.68 -16 19 C-15.0625 16.375 -15.0625 16.375 -14 14 C-14.33 13.67 -14.66 13.34 -15 13 C-15.59259259 5.77037037 -15.59259259 5.77037037 -13.125 2.5625 C-8.86600173 -0.56911638 -5.15760057 -0.48101974 0 0 Z " fill="#353354" transform="translate(36,0)"/>
<path d="M0 0 C1.65 0.33 3.3 0.66 5 1 C5 6.12558823 4.86342163 8.70486755 2 13 C3.20708564 14.43072341 3.20708564 14.43072341 6.75 14.1875 C10.23584286 14.15615249 12.84479083 13.57760458 16 12 C16 13.65 16 15.3 16 17 C9.73 17 3.46 17 -3 17 C-3 8 -3 8 -1.5 4 C-1.2215625 3.236875 -0.943125 2.47375 -0.65625 1.6875 C-0.33140625 0.8521875 -0.33140625 0.8521875 0 0 Z " fill="#E8E8EB" transform="translate(17,32)"/>
<path d="M0 0 C0.33 0.66 0.66 1.32 1 2 C2.11375 2.12375 3.2275 2.2475 4.375 2.375 C8 3 8 3 10 4.875 C11 7 11 7 10 10 C9.01 10 8.02 10 7 10 C6.731875 11.134375 6.46375 12.26875 6.1875 13.4375 C5.795625 14.613125 5.40375 15.78875 5 17 C4.01 17.33 3.02 17.66 2 18 C2.60990891 14.44219804 3.5783681 11.3171411 5 8 C4.34 8 3.68 8 3 8 C3 7.34 3 6.68 3 6 C0.03 5.505 0.03 5.505 -3 5 C-3 3 -3 3 -1.5 1.375 C-1.005 0.92125 -0.51 0.4675 0 0 Z " fill="#BAA3A2" transform="translate(37,28)"/>
<path d="M0 0 C1.65 0.33 3.3 0.66 5 1 C5 8 5 8 3 10.25 C2.34 10.8275 1.68 11.405 1 12 C-0.55078125 10.79296875 -0.55078125 10.79296875 -2 9 C-1.85546875 6.73828125 -1.85546875 6.73828125 -1.1875 4.3125 C-0.97480469 3.50425781 -0.76210938 2.69601563 -0.54296875 1.86328125 C-0.36378906 1.24839844 -0.18460938 0.63351563 0 0 Z " fill="#F6F5F7" transform="translate(17,32)"/>
<path d="M0 0 C10.83288923 2.21850019 10.83288923 2.21850019 14 4 C14.8125 6.125 14.8125 6.125 15 8 C8.89357521 8.78287497 4.99540421 6.10825151 0 3 C0 2.01 0 1.02 0 0 Z " fill="#E3C7BB" transform="translate(19,26)"/>
<path d="M0 0 C1.01769565 3.05308694 0.96280691 4.66392507 0.75 7.8125 C0.66095346 13.39005143 2.29091408 15.01951755 6 19 C6.8125 22.375 6.8125 22.375 7 25 C6.34 25 5.68 25 5 25 C4.38125 23.6696875 4.38125 23.6696875 3.75 22.3125 C2.19093832 18.98523842 2.19093832 18.98523842 -0.1875 16.75 C-2.85460329 12.70336052 -2.66079161 8.72542837 -2 4 C-0.9765625 1.69140625 -0.9765625 1.69140625 0 0 Z " fill="#3B3656" transform="translate(13,41)"/>
<path d="M0 0 C0.33 0 0.66 0 1 0 C1 1.65 1 3.3 1 5 C6.94 5 12.88 5 19 5 C19 5.99 19 6.98 19 8 C16.1875 8.625 16.1875 8.625 13 9 C12.01 8.34 11.02 7.68 10 7 C7.67612053 6.60612212 5.34206251 6.26513915 3 6 C3.33 7.32 3.66 8.64 4 10 C3.34 9.67 2.68 9.34 2 9 C2 8.01 2 7.02 2 6 C1.34 6 0.68 6 0 6 C0 4.02 0 2.04 0 0 Z " fill="#76738A" transform="translate(13,44)"/>
<path d="M0 0 C1.65 0 3.3 0 5 0 C5 0.66 5 1.32 5 2 C5.804375 2.144375 6.60875 2.28875 7.4375 2.4375 C10 3 10 3 11 4 C11.25 6.9375 11.25 6.9375 11 10 C8 12 8 12 5.4375 11.6875 C3 11 3 11 1 10 C1.33 9.34 1.66 8.68 2 8 C4.97 8.495 4.97 8.495 8 9 C8 7.68 8 6.36 8 5 C5.525 4.01 5.525 4.01 3 3 C3 2.34 3 1.68 3 1 C2.01 0.67 1.02 0.34 0 0 Z " fill="#403C5B" transform="translate(36,11)"/>
<path d="M0 0 C1.77260631 0.45142775 3.5430368 0.91140523 5.3125 1.375 C6.79169922 1.75785156 6.79169922 1.75785156 8.30078125 2.1484375 C11 3 11 3 14 5 C12.71937515 6.7074998 11.38232443 8.37373596 10 10 C9.34 10 8.68 10 8 10 C7.67 8.02 7.34 6.04 7 4 C6.21625 3.896875 5.4325 3.79375 4.625 3.6875 C2 3 2 3 0 0 Z " fill="#D7CAC9" transform="translate(22,34)"/>
<path d="M0 0 C0.66 0 1.32 0 2 0 C2.33 0.99 2.66 1.98 3 3 C3.845625 3.763125 4.69125 4.52625 5.5625 5.3125 C8 8 8 8 8.3125 11.3125 C8.1578125 12.6428125 8.1578125 12.6428125 8 14 C7.34 14 6.68 14 6 14 C5.7525 13.278125 5.505 12.55625 5.25 11.8125 C4.1021046 8.88784777 4.1021046 8.88784777 1.875 6.4375 C0 4 0 4 0 0 Z " fill="#DDDCE2" transform="translate(13,50)"/>
<path d="M0 0 C-0.66 1.65 -1.32 3.3 -2 5 C-2.66 4.67 -3.32 4.34 -4 4 C-4.99 4.33 -5.98 4.66 -7 5 C-7 4.34 -7 3.68 -7 3 C-8.32 2.67 -9.64 2.34 -11 2 C-11 1.34 -11 0.68 -11 0 C-7.01803543 -1.05404945 -4.01804691 -0.84098656 0 0 Z " fill="#383C5B" transform="translate(40,34)"/>
<path d="M0 0 C4.51650194 0.53135317 7.42058156 2.23408575 11 5 C11.33 5.99 11.66 6.98 12 8 C7.52761347 6.58192622 3.28853694 4.88695626 -1 3 C-0.67 2.01 -0.34 1.02 0 0 Z " fill="#41516E" transform="translate(18,29)"/>
<path d="M0 0 C0.66 1.32 1.32 2.64 2 4 C0.68 4.33 -0.64 4.66 -2 5 C-2.4021875 6.7015625 -2.4021875 6.7015625 -2.8125 8.4375 C-3.204375 9.613125 -3.59625 10.78875 -4 12 C-4.99 12.33 -5.98 12.66 -7 13 C-6.34197179 8.6570138 -4.96361202 4.92722404 -3 1 C-2.01 0.67 -1.02 0.34 0 0 Z " fill="#9C898D" transform="translate(46,33)"/>
<path d="M0 0 C2.31 0 4.62 0 7 0 C7 0.66 7 1.32 7 2 C6.195625 2.226875 5.39125 2.45375 4.5625 2.6875 C3.716875 3.120625 2.87125 3.55375 2 4 C1.10613836 6.54775306 1.10613836 6.54775306 1 9 C-0.32 8.34 -1.64 7.68 -3 7 C-2.01 4.69 -1.02 2.38 0 0 Z " fill="#0C0B13" transform="translate(25,13)"/>
<path d="M0 0 C2.46800047 1.15173355 4.04783565 2.04783565 6 4 C5.67 4.99 5.34 5.98 5 7 C6.65 7.33 8.3 7.66 10 8 C10 9.32 10 10.64 10 12 C8.68 11.67 7.36 11.34 6 11 C6 10.34 6 9.68 6 9 C5.01 8.67 4.02 8.34 3 8 C2.814375 6.8553125 2.814375 6.8553125 2.625 5.6875 C2.11897208 2.79732864 2.11897208 2.79732864 0 0 Z " fill="#615D77" transform="translate(24,55)"/>
<path d="M0 0 C4.75 0.875 4.75 0.875 7 2 C7 2.66 7 3.32 7 4 C7.66 4 8.32 4 9 4 C8.67 5.98 8.34 7.96 8 10 C6.68 10 5.36 10 4 10 C4.66666667 8.66666667 5.33333333 7.33333333 6 6 C5.34 5.01 4.68 4.02 4 3 C2.68 3 1.36 3 0 3 C0 2.01 0 1.02 0 0 Z " fill="#3D3756" transform="translate(41,29)"/>
<path d="M0 0 C0.33 1.32 0.66 2.64 1 4 C2.65 4 4.3 4 6 4 C5.01 4.495 5.01 4.495 4 5 C3.34786708 7.02463255 3.34786708 7.02463255 3 9 C1.68 8.67 0.36 8.34 -1 8 C-1.33 6.68 -1.66 5.36 -2 4 C-1.34 4 -0.68 4 0 4 C0 2.68 0 1.36 0 0 Z " fill="#757188" transform="translate(21,60)"/>
<path d="M0 0 C0 1.65 0 3.3 0 5 C-3.3 5 -6.6 5 -10 5 C-2.5 0 -2.5 0 0 0 Z " fill="#F9F9FA" transform="translate(33,44)"/>
<path d="M0 0 C0.33 0.66 0.66 1.32 1 2 C1.99 2 2.98 2 4 2 C3.34 3.32 2.68 4.64 2 6 C0.35 5.67 -1.3 5.34 -3 5 C-3 3 -3 3 -1.5 1.375 C-1.005 0.92125 -0.51 0.4675 0 0 Z " fill="#EACDBF" transform="translate(37,28)"/>
<path d="M0 0 C0.66 0.33 1.32 0.66 2 1 C2.625 3.0625 2.625 3.0625 3 5 C-0.75 6.125 -0.75 6.125 -3 5 C-2.67 4.01 -2.34 3.02 -2 2 C-1.34 2 -0.68 2 0 2 C0 1.34 0 0.68 0 0 Z " fill="#383354" transform="translate(21,69)"/>
<path d="M0 0 C0.33 0.99 0.66 1.98 1 3 C-2 5 -2 5 -4.5625 4.6875 C-7 4 -7 4 -9 3 C-8.67 2.34 -8.34 1.68 -8 1 C-6.576875 1.309375 -6.576875 1.309375 -5.125 1.625 C-4.09375 1.74875 -3.0625 1.8725 -2 2 C-1.34 1.34 -0.68 0.68 0 0 Z " fill="#3B3555" transform="translate(46,18)"/>
<path d="M0 0 C1.65 0.33 3.3 0.66 5 1 C5 1.66 5 2.32 5 3 C2.69 3.33 0.38 3.66 -2 4 C-2 3.34 -2 2.68 -2 2 C-1.34 2 -0.68 2 0 2 C0 1.34 0 0.68 0 0 Z " fill="#383354" transform="translate(36,69)"/>
<path d="M0 0 C0.66 0 1.32 0 2 0 C1.50168276 3.68754757 0.89932357 5.60490662 -2 8 C-2 7.34 -2 6.68 -2 6 C-2.99 5.67 -3.98 5.34 -5 5 C-4.175 4.54625 -3.35 4.0925 -2.5 3.625 C-1.2625 2.820625 -1.2625 2.820625 0 2 C0 1.34 0 0.68 0 0 Z " fill="#433F5C" transform="translate(40,36)"/>
<path d="M0 0 C2.97 0 5.94 0 9 0 C8.67 0.99 8.34 1.98 8 3 C7.34 3 6.68 3 6 3 C5.67 3.66 5.34 4.32 5 5 C5 4.01 5 3.02 5 2 C3.35 1.67 1.7 1.34 0 1 C0 0.67 0 0.34 0 0 Z " fill="#5D546B" transform="translate(28,28)"/>
</svg>
