<svg version="1.1" id="Layer_1" xmlns="http://www.w3.org/2000/svg" xmlns:xlink="http://www.w3.org/1999/xlink" x="0px" y="0px"
	 width="100%" viewBox="0 0 1200 630" enable-background="new 0 0 1200 630" xml:space="preserve">
<path id="warning-track" fill="#6F722A" opacity="1.000000" stroke="none" 
	d="
M724.000000,631.000000 
	C646.645752,631.000000 569.291565,631.000000 491.548859,630.642395 
	C488.129333,628.420654 485.121765,626.517090 482.063416,624.698853 
	C462.440674,613.033020 442.835541,601.337036 423.167450,589.748047 
	C407.148315,580.309143 391.003906,571.082703 374.998138,561.621521 
	C357.875610,551.500183 340.907990,541.116516 323.767700,531.025696 
	C303.669830,519.193726 283.417297,507.624481 263.310150,495.808044 
	C247.705933,486.637878 232.273209,477.175934 216.671692,468.001068 
	C196.563492,456.175964 176.329193,444.565369 156.212189,432.755127 
	C138.070740,422.104736 120.040253,411.265442 101.912697,400.591217 
	C84.343895,390.246002 66.670914,380.077362 49.123531,369.696228 
	C33.825733,360.645966 18.645386,351.397308 3.381322,342.289642 
	C2.753472,341.915009 1.801154,342.084198 0.999999,342.000000 
	C1.000000,309.645782 1.000000,277.291534 1.320878,244.599976 
	C13.835804,251.387482 26.049990,258.478119 38.219887,265.643982 
	C67.568039,282.924713 96.895050,300.241333 126.231438,317.542053 
	C148.699326,330.792236 171.154266,344.064423 193.640533,357.283325 
	C225.149872,375.806549 256.703796,394.253967 288.199738,412.799988 
	C316.686523,429.574158 345.107666,446.459839 373.582062,463.255127 
	C407.063354,483.003693 440.630310,502.608124 474.014587,522.519043 
	C480.355927,526.301147 486.562225,528.730286 494.123962,528.169128 
	C501.744019,527.603577 509.437317,528.024292 517.357788,528.227295 
	C524.643616,541.435547 535.653992,550.109009 548.746399,556.129456 
	C581.459473,571.172180 615.202759,572.408813 649.404053,562.180237 
	C669.009521,556.316895 686.023987,546.426331 696.932739,527.847656 
	C707.092773,527.970032 716.756592,528.112793 726.415771,527.959717 
	C728.459473,527.927368 730.698303,527.179077 732.487610,526.140869 
	C750.022705,515.966003 767.500000,505.690948 784.958008,495.383881 
	C813.433594,478.572021 841.851257,461.661926 870.350342,444.890106 
	C907.447327,423.058258 944.622437,401.358978 981.722046,379.531525 
	C1014.523376,360.232971 1047.265625,340.834076 1080.037109,321.484863 
	C1111.092041,303.149231 1142.121460,284.770142 1173.226562,266.520050 
	C1182.371582,261.154480 1191.736084,256.162994 1201.000000,251.000015 
	C1201.000000,283.020905 1201.000000,315.041779 1200.642090,347.577271 
	C1197.221069,349.923370 1194.167603,351.770966 1191.093506,353.583801 
	C1174.801147,363.191650 1158.495850,372.777740 1142.210083,382.396912 
	C1129.156616,390.106934 1116.146484,397.890350 1103.077881,405.574799 
	C1085.365845,415.989838 1067.587158,426.291870 1049.892700,436.736664 
	C1036.704346,444.521515 1023.645630,452.526062 1010.454590,460.306274 
	C992.753113,470.746704 974.940979,480.999603 957.247803,491.453888 
	C938.308105,502.644714 919.485840,514.034363 900.548889,525.229797 
	C881.176514,536.682617 861.701416,547.961548 842.319580,559.398438 
	C826.599915,568.674377 810.969604,578.101501 795.267700,587.407715 
	C774.930664,599.460999 754.530151,611.407715 734.236389,623.533142 
	C730.625977,625.690308 727.402283,628.494568 724.000000,631.000000 
M437.677246,530.534851 
	C430.417084,530.805969 423.464081,532.224487 417.345306,536.381531 
	C406.874542,543.495300 406.868134,554.504456 417.271118,561.638489 
	C428.784821,569.534241 448.874664,569.463074 460.373077,561.485718 
	C470.543610,554.429626 470.545380,543.572510 460.330261,536.548218 
	C453.779175,532.043457 446.336517,530.631348 437.677246,530.534851 
M754.945007,562.622192 
	C768.014343,569.270630 781.216492,569.371948 794.254028,562.824707 
	C799.792480,560.043335 804.088989,555.734253 804.008179,548.863464 
	C803.930359,542.244202 799.769104,538.079102 794.402893,535.313904 
	C781.745911,528.791809 768.699219,528.557678 756.018494,534.964539 
	C742.728333,541.679199 742.181152,553.554016 754.945007,562.622192 
z"/>

<path id="left-foul-grass" fill="#83AC3A" opacity="1.000000" stroke="none" 
	d="
M517.098511,528.012878 
	C509.437317,528.024292 501.744019,527.603577 494.123962,528.169128 
	C486.562225,528.730286 480.355927,526.301147 474.014587,522.519043 
	C440.630310,502.608124 407.063354,483.003693 373.582062,463.255127 
	C345.107666,446.459839 316.686523,429.574158 288.199738,412.799988 
	C256.703796,394.253967 225.149872,375.806549 193.640533,357.283325 
	C171.154266,344.064423 148.699326,330.792236 126.231438,317.542053 
	C96.895050,300.241333 67.568039,282.924713 38.219887,265.643982 
	C26.049990,258.478119 13.835804,251.387482 1.320878,244.131317 
	C1.000000,243.250000 1.000000,242.500000 1.330133,241.587952 
	C14.607126,223.804260 27.958342,206.529633 43.960091,191.489136 
	C45.870968,189.693039 47.439964,187.533218 49.514069,185.645294 
	C51.319813,186.544907 52.804134,187.298538 54.234421,188.143600 
	C182.334335,263.829132 310.436951,339.510101 438.521423,415.221680 
	C471.735504,434.854736 504.891968,454.585266 537.983643,474.583984 
	C534.562500,477.627625 531.232483,480.358246 527.537842,483.067505 
	C525.510254,484.236053 523.432312,485.110413 522.250061,486.665680 
	C512.562805,499.408752 510.862091,513.239380 517.098511,528.012878 
M334.856873,379.434265 
	C335.330902,379.421112 335.918793,379.217133 336.262695,379.422211 
	C354.532501,390.317108 372.781738,401.246521 391.502502,412.453369 
	C389.763031,413.698151 388.477356,414.682587 387.129272,415.572479 
	C377.828217,421.712128 368.469574,427.766479 359.251373,434.027771 
	C357.839172,434.986938 357.055786,436.871979 355.981598,438.328827 
	C357.846039,437.954163 360.028534,438.078369 361.523987,437.124969 
	C372.322937,430.240326 382.992737,423.152557 393.682556,416.097443 
	C398.613342,412.843201 398.614349,411.999725 393.688660,409.038635 
	C375.588013,398.157318 357.442627,387.349915 339.391754,376.386749 
	C336.606720,374.695282 334.511322,374.583954 331.737305,376.517242 
	C321.230103,383.840027 310.505188,390.850189 299.986603,398.157074 
	C298.653534,399.083038 298.059784,401.073242 297.123535,402.570404 
	C298.877930,402.143890 300.919281,402.154541 302.340973,401.221283 
	C313.047424,394.192719 323.631897,386.978363 334.856873,379.434265 
z"/>
<path id="right-foul-grass" fill="#83AC39" opacity="1.000000" stroke="none" 
	d="
M1201.000000,250.531372 
	C1191.736084,256.162994 1182.371582,261.154480 1173.226562,266.520050 
	C1142.121460,284.770142 1111.092041,303.149231 1080.037109,321.484863 
	C1047.265625,340.834076 1014.523376,360.232971 981.722046,379.531525 
	C944.622437,401.358978 907.447327,423.058258 870.350342,444.890106 
	C841.851257,461.661926 813.433594,478.572021 784.958008,495.383881 
	C767.500000,505.690948 750.022705,515.966003 732.487610,526.140869 
	C730.698303,527.179077 728.459473,527.927368 726.415771,527.959717 
	C716.756592,528.112793 707.092773,527.970032 697.050049,527.480957 
	C702.813843,512.068115 701.146790,498.218231 690.813599,485.577148 
	C689.241638,483.654053 687.718628,481.915680 684.986450,483.847809 
	C681.548035,480.435760 678.270081,477.332092 675.294861,474.043976 
	C743.260193,433.803528 810.901855,393.712128 878.590332,353.700073 
	C972.264648,298.327301 1065.972412,243.011276 1159.683960,187.701767 
	C1161.185425,186.815643 1162.918579,186.322113 1164.892334,185.789368 
	C1175.055542,196.674744 1184.842041,207.441971 1194.708496,218.135406 
	C1196.647095,220.236481 1198.894897,222.052490 1201.000000,224.000000 
	C1201.000000,232.687561 1201.000000,241.375137 1201.000000,250.531372 
M855.824097,390.366730 
	C845.455322,396.692535 835.068848,402.989532 824.726685,409.358551 
	C820.641602,411.874298 820.613647,412.972351 824.593994,415.686096 
	C834.907776,422.717926 845.216980,429.760101 855.671875,436.577606 
	C857.421082,437.718231 859.890503,437.754242 862.027161,438.300690 
	C860.673523,436.650269 859.604248,434.592468 857.919495,433.416382 
	C847.984253,426.480896 837.905762,419.750549 827.863159,412.942780 
	C828.295959,412.333221 828.420349,411.987885 828.664734,411.838074 
	C845.825684,401.313629 862.962952,390.749390 880.238037,380.415405 
	C881.434204,379.699890 884.030945,380.143005 885.351013,381.005035 
	C895.661621,387.738098 905.782288,394.761597 916.070740,401.529602 
	C917.349609,402.370880 919.267822,402.240326 920.889832,402.560089 
	C920.085266,401.151031 919.625488,399.244446 918.422302,398.410553 
	C907.616577,390.921997 896.761047,383.495941 885.692749,376.406433 
	C884.087158,375.377991 880.820496,375.398834 879.106628,376.348816 
	C871.400757,380.620331 863.977905,385.402283 855.824097,390.366730 
z"/>
<path id="right-foul-line" fill="#F8F9F1" opacity="1.000000" stroke="none" 
	d="
M1164.543579,185.645355 
	C1162.918579,186.322113 1161.185425,186.815643 1159.683960,187.701767 
	C1065.972412,243.011276 972.264648,298.327301 878.590332,353.700073 
	C810.901855,393.712128 743.260193,433.803528 674.946045,473.966156 
	C672.883240,473.264130 671.471985,472.455475 669.343384,471.235748 
	C730.505981,435.114471 791.098572,399.329834 852.285645,363.194153 
	C847.777283,360.294678 843.663757,357.649139 838.667786,354.436035 
	C842.788635,352.143250 846.577820,350.870911 849.240662,348.389709 
	C856.011169,342.081055 862.105347,343.797272 868.235962,348.975464 
	C871.144836,351.432526 873.627380,350.834442 876.706482,348.987030 
	C896.682190,337.002319 916.771606,325.207214 936.826416,313.354370 
	C944.963013,308.545532 953.106140,303.747803 961.950623,298.529419 
	C956.167053,291.314819 951.076416,284.311920 945.325134,277.901825 
	C918.946289,248.501572 886.406494,227.649643 850.872009,211.280975 
	C783.203186,180.109833 711.463318,166.415451 637.514404,163.135712 
	C582.883301,160.712769 528.628723,164.610626 475.093872,176.094055 
	C402.936615,191.572052 335.197174,216.769333 278.930573,266.969849 
	C278.452942,266.561432 278.224121,266.276428 278.158875,265.702271 
	C299.350403,245.610184 323.193268,229.839661 348.919312,216.946289 
	C421.804108,180.417816 499.792572,164.750061 580.603027,161.024170 
	C628.029663,158.837463 675.161560,161.879410 721.943420,170.015518 
	C770.379883,178.439392 817.231323,191.997803 861.364197,214.003906 
	C896.107544,231.328094 927.717896,252.908096 952.639343,283.222961 
	C956.408203,287.807404 959.874146,292.640747 963.536499,297.432678 
	C965.008911,296.615479 966.180359,296.000488 967.318359,295.328735 
	C1015.623413,266.812958 1063.940674,238.317963 1112.219238,209.757248 
	C1128.243408,200.277679 1144.166504,190.627579 1160.135864,181.055405 
	C1173.545288,173.132858 1186.954712,165.210327 1200.682129,157.143890 
	C1201.000000,159.041672 1201.000000,161.083328 1200.635864,163.535812 
	C1196.926025,165.926636 1193.557617,167.869644 1190.238892,169.893890 
	C1181.662109,175.125259 1173.107178,180.392471 1164.543579,185.645355 
z"/>
<path id="left-foul-line" fill="#FAFBF6" opacity="1.000000" stroke="none" 
	d="
M538.074890,474.271057 
	C504.891968,454.585266 471.735504,434.854736 438.521423,415.221680 
	C310.436951,339.510101 182.334335,263.829132 54.234421,188.143600 
	C52.804134,187.298538 51.319813,186.544907 49.279999,185.420319 
	C38.803181,179.202835 28.970921,173.202469 18.986708,167.466629 
	C13.115904,164.093903 7.003654,161.141464 1.000001,158.000000 
	C1.000000,155.958328 1.000000,153.916672 1.000001,151.437500 
	C12.417976,157.621628 23.859661,164.202835 35.244312,170.881287 
	C41.294395,174.430359 47.245636,178.147949 53.847343,182.073181 
	C119.553970,220.841049 184.654739,259.325226 249.825027,297.850494 
	C251.435165,295.976929 252.715439,294.487213 254.235275,293.132507 
	C254.680511,293.567352 254.886200,293.867188 254.969498,294.508942 
	C254.008820,296.202881 253.170532,297.554901 252.236923,299.060638 
	C253.814850,300.082367 255.028076,300.930573 256.298798,301.681488 
	C280.633789,316.061798 305.243561,330.003845 329.174561,345.027100 
	C337.870514,350.486176 344.902802,352.151093 352.807068,344.843811 
	C353.716461,344.003113 355.833038,343.272522 356.678345,343.750153 
	C362.645660,347.122131 368.426819,350.823517 374.828522,354.765289 
	C370.135498,357.770447 365.997742,360.420044 361.444916,363.335419 
	C422.540253,399.497589 483.060822,435.319550 544.262451,471.544617 
	C541.654663,472.693695 539.864807,473.482361 538.074890,474.271057 
z"/>
<path id="home-arc" fill="#F9F9F4" opacity="1.000000" stroke="none" 
	d="
M685.146851,484.156158 
	C687.718628,481.915680 689.241638,483.654053 690.813599,485.577148 
	C701.146790,498.218231 702.813843,512.068115 696.552246,527.395874 
	C686.023987,546.426331 669.009521,556.316895 649.404053,562.180237 
	C615.202759,572.408813 581.459473,571.172180 548.746399,556.129456 
	C535.653992,550.109009 524.643616,541.435547 517.357788,528.227295 
	C510.862091,513.239380 512.562805,499.408752 522.250061,486.665680 
	C523.432312,485.110413 525.510254,484.236053 527.678711,483.381836 
	C527.533081,485.706818 527.334473,488.026978 526.159851,489.633667 
	C515.476318,504.247589 516.012817,520.709839 527.813293,534.482849 
	C534.432556,542.208557 542.606750,547.858459 551.784546,552.035583 
	C579.121765,564.477478 607.601807,566.277954 636.696594,560.359375 
	C654.227173,556.793213 670.398743,550.085510 683.355164,537.154602 
	C697.167847,523.368896 699.596558,503.394806 686.798340,488.581848 
	C685.833252,487.464813 685.678345,485.647797 685.146851,484.156158 
z"/>
<path id="left-on-deck" fill="#F1F4E1" opacity="1.000000" stroke="none" 
	d="
M438.114471,530.525513 
	C446.336517,530.631348 453.779175,532.043457 460.330261,536.548218 
	C470.545380,543.572510 470.543610,554.429626 460.373077,561.485718 
	C448.874664,569.463074 428.784821,569.534241 417.271118,561.638489 
	C406.868134,554.504456 406.874542,543.495300 417.345306,536.381531 
	C423.464081,532.224487 430.417084,530.805969 438.114471,530.525513 
M431.208160,533.216309 
	C427.354492,534.665955 423.239746,535.652893 419.696075,537.652039 
	C409.116699,543.620239 409.056702,553.757324 419.311584,560.276245 
	C430.563202,567.428711 449.597656,566.815186 460.254730,558.956543 
	C467.621521,553.524231 467.498932,544.496399 460.076416,538.992981 
	C451.627197,532.728333 441.962067,532.460266 431.208160,533.216309 
z"/>
<path id="right-on-deck" fill="#F2F4E2" opacity="1.000000" stroke="none" 
	d="
M754.639404,562.417480 
	C742.181152,553.554016 742.728333,541.679199 756.018494,534.964539 
	C768.699219,528.557678 781.745911,528.791809 794.402893,535.313904 
	C799.769104,538.079102 803.930359,542.244202 804.008179,548.863464 
	C804.088989,555.734253 799.792480,560.043335 794.254028,562.824707 
	C781.216492,569.371948 768.014343,569.270630 754.639404,562.417480 
M761.618103,563.147217 
	C773.226196,566.593750 784.544861,566.374756 795.062744,559.788208 
	C804.230286,554.047302 804.248596,544.509888 795.360291,538.456787 
	C784.507324,531.065857 765.934387,530.870605 754.781738,538.030334 
	C745.660400,543.886047 745.556030,553.897461 754.637207,559.855469 
	C756.559204,561.116516 758.769775,561.937561 761.618103,563.147217 
z"/>
<path id="outfield-grass" fill="#83AC39" opacity="1.000000" stroke="none" 
	d="
M253.995728,292.997498 
	C252.715439,294.487213 251.435165,295.976929 249.825027,297.850494 
	C184.654739,259.325226 119.553970,220.841049 54.184685,182.128357 
	C61.189102,175.519730 68.159447,168.747345 75.804886,162.850189 
	C87.680389,153.690216 99.626488,144.516342 112.252632,136.461243 
	C128.594727,126.035469 145.261185,115.981003 162.469666,107.085403 
	C183.602722,96.161064 205.246964,86.158707 227.042389,76.607033 
	C240.726624,70.610016 255.078888,66.129669 269.159058,61.045353 
	C299.649658,50.035278 330.970215,41.840870 362.452209,34.352787 
	C381.128632,29.910547 400.053772,26.435356 418.967072,23.090778 
	C436.479736,19.993877 454.093079,17.405775 471.724396,15.062566 
	C482.780701,13.593184 493.944489,12.892177 505.073792,12.022564 
	C519.186584,10.919829 533.298950,9.526956 547.437073,9.089841 
	C579.280273,8.105334 611.136841,7.350765 642.992859,7.082922 
	C656.675964,6.967875 670.390320,8.034679 684.055359,9.041415 
	C697.631226,10.041577 711.166321,11.607293 724.713013,12.986664 
	C737.430542,14.281610 750.191162,15.296030 762.839905,17.089075 
	C778.490295,19.307619 794.146667,21.709900 809.618469,24.912186 
	C837.023132,30.584293 864.536255,36.003445 891.543457,43.245651 
	C916.626465,49.971859 941.427612,58.083580 965.765686,67.159782 
	C990.318054,76.315941 1014.503479,86.657188 1038.198242,97.857437 
	C1063.414185,109.776764 1087.516846,123.980888 1110.268311,140.167389 
	C1123.981201,149.923431 1136.798828,160.943665 1149.937744,171.496597 
	C1153.401123,174.278290 1156.564087,177.434021 1160.000488,180.736725 
	C1144.166504,190.627579 1128.243408,200.277679 1112.219238,209.757248 
	C1063.940674,238.317963 1015.623413,266.812958 967.318359,295.328735 
	C966.180359,296.000488 965.008911,296.615479 963.536499,297.432678 
	C959.874146,292.640747 956.408203,287.807404 952.639343,283.222961 
	C927.717896,252.908096 896.107544,231.328094 861.364197,214.003906 
	C817.231323,191.997803 770.379883,178.439392 721.943420,170.015518 
	C675.161560,161.879410 628.029663,158.837463 580.603027,161.024170 
	C499.792572,164.750061 421.804108,180.417816 348.919312,216.946289 
	C323.193268,229.839661 299.350403,245.610184 277.851318,265.832214 
	C269.585449,275.166718 261.790588,284.082123 253.995728,292.997498 
z"/>
<path id="infield-clay" fill="#9D8C28" opacity="1.000000" stroke="none" 
	d="
M684.986450,483.847809 
	C685.678345,485.647797 685.833252,487.464813 686.798340,488.581848 
	C699.596558,503.394806 697.167847,523.368896 683.355164,537.154602 
	C670.398743,550.085510 654.227173,556.793213 636.696594,560.359375 
	C607.601807,566.277954 579.121765,564.477478 551.784546,552.035583 
	C542.606750,547.858459 534.432556,542.208557 527.813293,534.482849 
	C516.012817,520.709839 515.476318,504.247589 526.159851,489.633667 
	C527.334473,488.026978 527.533081,485.706818 528.043457,483.403198 
	C531.232483,480.358246 534.562500,477.627625 537.983643,474.584015 
	C539.864807,473.482361 541.654663,472.693695 544.262451,471.544617 
	C483.060822,435.319550 422.540253,399.497589 361.444916,363.335419 
	C365.997742,360.420044 370.135498,357.770447 374.828522,354.765289 
	C368.426819,350.823517 362.645660,347.122131 356.678345,343.750153 
	C355.833038,343.272522 353.716461,344.003113 352.807068,344.843811 
	C344.902802,352.151093 337.870514,350.486176 329.174561,345.027100 
	C305.243561,330.003845 280.633789,316.061798 256.298798,301.681488 
	C255.028076,300.930573 253.814850,300.082367 252.236923,299.060638 
	C253.170532,297.554901 254.008820,296.202881 255.257935,294.333191 
	C263.505646,284.908112 271.342529,276.000671 279.179413,267.093231 
	C335.197174,216.769333 402.936615,191.572052 475.093872,176.094055 
	C528.628723,164.610626 582.883301,160.712769 637.514404,163.135712 
	C711.463318,166.415451 783.203186,180.109833 850.872009,211.280975 
	C886.406494,227.649643 918.946289,248.501572 945.325134,277.901825 
	C951.076416,284.311920 956.167053,291.314819 961.950623,298.529419 
	C953.106140,303.747803 944.963013,308.545532 936.826416,313.354370 
	C916.771606,325.207214 896.682190,337.002319 876.706482,348.987030 
	C873.627380,350.834442 871.144836,351.432526 868.235962,348.975464 
	C862.105347,343.797272 856.011169,342.081055 849.240662,348.389709 
	C846.577820,350.870911 842.788635,352.143250 838.667786,354.436035 
	C843.663757,357.649139 847.777283,360.294678 852.285645,363.194153 
	C791.098572,399.329834 730.505981,435.114471 669.343384,471.235748 
	C671.471985,472.455475 672.883240,473.264130 674.643311,474.150604 
	C678.270081,477.332092 681.548035,480.435760 684.986450,483.847809 
M627.317627,231.281693 
	C614.254517,237.165039 601.201050,238.174652 587.961182,231.644226 
	C586.753723,231.048645 584.414124,231.877060 582.999329,232.716721 
	C574.714905,237.633423 566.586670,242.812271 558.337585,247.789658 
	C504.713623,280.145569 451.065521,312.461487 397.472168,344.867920 
	C396.058258,345.722870 394.594086,347.297394 394.173248,348.818542 
	C393.388855,351.653992 392.968781,354.721802 393.153564,357.645081 
	C393.266357,359.429504 394.332397,361.872498 395.752747,362.743011 
	C408.357452,370.468445 421.139282,377.904663 433.864685,385.433258 
	C462.603912,402.435760 491.335236,419.451630 520.081055,436.442963 
	C533.525330,444.389771 546.957764,452.358490 560.497925,460.139099 
	C562.384216,461.223022 564.964905,461.999054 567.043396,461.692413 
	C576.187683,460.343506 585.262268,458.525726 594.368469,456.914307 
	C607.670410,454.560455 621.115723,455.485718 633.843811,458.853851 
	C644.869995,461.771545 654.153748,461.779694 662.855591,454.106750 
	C663.219482,453.785858 663.743530,453.653229 664.173035,453.399231 
	C691.199280,437.416687 718.222961,421.429779 745.247925,405.445068 
	C767.412598,392.335144 789.592712,379.251312 811.718750,366.076416 
	C813.626587,364.940399 816.374512,363.416901 816.671753,361.713806 
	C817.542786,356.723145 817.511108,351.549500 817.462097,346.451111 
	C817.454712,345.681213 815.509277,344.858704 814.387390,344.181366 
	C796.325439,333.277466 778.238098,322.415619 760.183228,311.499969 
	C716.114319,284.856598 672.059204,258.190369 627.317627,231.281693 
M592.479309,200.028305 
	C590.968018,200.999908 589.456665,201.971527 587.242676,203.394852 
	C590.853760,205.749420 594.246399,207.451370 597.014221,209.868713 
	C603.476318,215.512589 609.576416,215.699234 616.177185,210.088882 
	C618.922852,207.755173 622.332214,206.202255 626.426575,203.688446 
	C623.412170,201.826660 621.402466,200.972992 619.883118,199.583282 
	C610.882751,191.351166 602.013123,191.404007 592.479309,200.028305 
M619.986694,502.676056 
	C619.987305,511.336823 620.099182,519.999695 619.932800,528.657227 
	C619.867676,532.047791 620.895630,533.433350 624.475342,533.354126 
	C633.298340,533.158936 642.130798,533.174500 650.954773,533.345886 
	C654.548401,533.415649 655.572510,531.873779 655.527100,528.554993 
	C655.403992,519.562805 655.378113,510.565948 655.537231,501.574921 
	C655.599060,498.081421 654.277588,496.876160 650.841248,496.936768 
	C642.016663,497.092468 633.184326,497.128479 624.361755,496.923462 
	C620.660950,496.837463 619.619446,498.461212 619.986694,502.676056 
M557.519043,500.991180 
	C557.517639,510.155609 557.589844,519.320984 557.475159,528.484009 
	C557.434448,531.737183 558.317078,533.415894 561.977661,533.345764 
	C570.972168,533.173523 579.973267,533.208374 588.969360,533.332703 
	C592.018005,533.374817 593.084412,532.193787 593.049622,529.210144 
	C592.940796,519.880371 592.948364,510.547852 593.046448,501.217834 
	C593.076355,498.372070 592.318176,496.901184 589.126831,496.946198 
	C579.964233,497.075378 570.794800,496.861053 561.638306,497.130493 
	C560.243530,497.171509 558.903198,499.065857 557.519043,500.991180 
M608.393372,522.994568 
	C612.138000,519.657043 615.838196,516.301025 613.450317,510.236206 
	C609.213074,510.236206 604.832764,510.236206 600.480042,510.236206 
	C599.493286,517.353943 602.624023,522.861877 608.393372,522.994568 
z"/>
<path id="third-coach-box" fill="#F8FAF4" opacity="1.000000" stroke="none" 
	d="
M334.555695,379.628174 
	C323.631897,386.978363 313.047424,394.192719 302.340973,401.221283 
	C300.919281,402.154541 298.877930,402.143890 297.123535,402.570435 
	C298.059784,401.073242 298.653534,399.083038 299.986603,398.157074 
	C310.505188,390.850189 321.230103,383.840027 331.737305,376.517242 
	C334.511322,374.583954 336.606720,374.695282 339.391754,376.386749 
	C357.442627,387.349915 375.588013,398.157318 393.688660,409.038635 
	C398.614349,411.999725 398.613342,412.843201 393.682556,416.097443 
	C382.992737,423.152557 372.322937,430.240326 361.523987,437.124969 
	C360.028534,438.078369 357.846039,437.954163 355.981567,438.328827 
	C357.055786,436.871979 357.839172,434.986938 359.251373,434.027771 
	C368.469574,427.766479 377.828217,421.712128 387.129272,415.572479 
	C388.477356,414.682587 389.763031,413.698151 391.502502,412.453369 
	C372.781738,401.246521 354.532501,390.317108 336.262695,379.422211 
	C335.918793,379.217133 335.330902,379.421112 334.555695,379.628174 
z"/>
<path id="first-coach-box" fill="#F8FAF4" opacity="1.000000" stroke="none" 
	d="
M856.138550,390.183441 
	C863.977905,385.402283 871.400757,380.620331 879.106628,376.348816 
	C880.820496,375.398834 884.087158,375.377991 885.692749,376.406433 
	C896.761047,383.495941 907.616577,390.921997 918.422302,398.410553 
	C919.625488,399.244446 920.085266,401.151031 920.889832,402.560089 
	C919.267822,402.240326 917.349609,402.370880 916.070740,401.529602 
	C905.782288,394.761597 895.661621,387.738098 885.351013,381.005035 
	C884.030945,380.143005 881.434204,379.699890 880.238037,380.415405 
	C862.962952,390.749390 845.825684,401.313629 828.664734,411.838074 
	C828.420349,411.987885 828.295959,412.333221 827.863159,412.942780 
	C837.905762,419.750549 847.984253,426.480896 857.919495,433.416382 
	C859.604248,434.592468 860.673523,436.650269 862.027161,438.300690 
	C859.890503,437.754242 857.421082,437.718231 855.671875,436.577606 
	C845.216980,429.760101 834.907776,422.717926 824.593994,415.686096 
	C820.613647,412.972351 820.641602,411.874298 824.726685,409.358551 
	C835.068848,402.989532 845.455322,396.692535 856.138550,390.183441 
z"/>
<path fill="#F1F3E5" opacity="1.000000" stroke="none" 
	d="
M278.930573,266.969849 
	C271.342529,276.000671 263.505646,284.908112 255.380341,293.991272 
	C254.886200,293.867188 254.680511,293.567352 254.235275,293.132507 
	C261.790588,284.082123 269.585449,275.166718 277.687805,266.121368 
	C278.224121,266.276428 278.452942,266.561432 278.930573,266.969849 
z"/>
<path id="left-on-deck-dirt" fill="#9D8D27" opacity="1.000000" stroke="none" 
	d="
M431.646637,533.149658 
	C441.962067,532.460266 451.627197,532.728333 460.076416,538.992981 
	C467.498932,544.496399 467.621521,553.524231 460.254730,558.956543 
	C449.597656,566.815186 430.563202,567.428711 419.311584,560.276245 
	C409.056702,553.757324 409.116699,543.620239 419.696075,537.652039 
	C423.239746,535.652893 427.354492,534.665955 431.646637,533.149658 
z"/>
<path id="right-on-deck-dirt" fill="#9D8C27" opacity="1.000000" stroke="none" 
	d="
M761.232788,563.054321 
	C758.769775,561.937561 756.559204,561.116516 754.637207,559.855469 
	C745.556030,553.897461 745.660400,543.886047 754.781738,538.030334 
	C765.934387,530.870605 784.507324,531.065857 795.360291,538.456787 
	C804.248596,544.509888 804.230286,554.047302 795.062744,559.788208 
	C784.544861,566.374756 773.226196,566.593750 761.232788,563.054321 
z"/>
<path id="infield-grass" fill="#83AC39" opacity="1.000000" stroke="none" 
	d="
M627.658081,231.407532 
	C672.059204,258.190369 716.114319,284.856598 760.183228,311.499969 
	C778.238098,322.415619 796.325439,333.277466 814.387390,344.181366 
	C815.509277,344.858704 817.454712,345.681213 817.462097,346.451111 
	C817.511108,351.549500 817.542786,356.723145 816.671753,361.713806 
	C816.374512,363.416901 813.626587,364.940399 811.718750,366.076416 
	C789.592712,379.251312 767.412598,392.335144 745.247925,405.445068 
	C718.222961,421.429779 691.199280,437.416687 664.173035,453.399231 
	C663.743530,453.653229 663.219482,453.785858 662.855591,454.106750 
	C654.153748,461.779694 644.869995,461.771545 633.843811,458.853851 
	C621.115723,455.485718 607.670410,454.560455 594.368469,456.914307 
	C585.262268,458.525726 576.187683,460.343506 567.043396,461.692413 
	C564.964905,461.999054 562.384216,461.223022 560.497925,460.139099 
	C546.957764,452.358490 533.525330,444.389771 520.081055,436.442963 
	C491.335236,419.451630 462.603912,402.435760 433.864685,385.433258 
	C421.139282,377.904663 408.357452,370.468445 395.752747,362.743011 
	C394.332397,361.872498 393.266357,359.429504 393.153564,357.645081 
	C392.968781,354.721802 393.388855,351.653992 394.173248,348.818542 
	C394.594086,347.297394 396.058258,345.722870 397.472168,344.867920 
	C451.065521,312.461487 504.713623,280.145569 558.337585,247.789658 
	C566.586670,242.812271 574.714905,237.633423 582.999329,232.716721 
	C584.414124,231.877060 586.753723,231.048645 587.961182,231.644226 
	C601.201050,238.174652 614.254517,237.165039 627.658081,231.407532 
M653.177246,339.346741 
	C642.647461,329.030182 629.447693,324.912537 615.268738,323.513672 
	C598.108643,321.820679 581.648010,324.316772 566.958679,333.962280 
	C548.343750,346.185547 548.471069,365.719421 567.028076,378.115814 
	C567.995728,378.762207 568.986267,379.378265 569.994568,379.959229 
	C578.956909,385.123291 588.725586,387.773804 598.935120,388.552856 
	C617.527588,389.971588 635.253845,387.281433 650.288757,375.221985 
	C662.679138,365.283783 663.721436,352.179474 653.177246,339.346741 
z"/>
<path id="second-base" fill="#FDFCFA" opacity="1.000000" stroke="none" 
	d="
M592.800537,199.853149 
	C602.013123,191.404007 610.882751,191.351166 619.883118,199.583282 
	C621.402466,200.972992 623.412170,201.826660 626.426575,203.688446 
	C622.332214,206.202255 618.922852,207.755173 616.177185,210.088882 
	C609.576416,215.699234 603.476318,215.512589 597.014221,209.868713 
	C594.246399,207.451370 590.853760,205.749420 587.242676,203.394852 
	C589.456665,201.971527 590.968018,200.999908 592.800537,199.853149 
z"/>
<path id="right-batters-box" fill="#EAEBC9" opacity="1.000000" stroke="none" 
	d="
M619.987427,502.200836 
	C619.619446,498.461212 620.660950,496.837463 624.361755,496.923462 
	C633.184326,497.128479 642.016663,497.092468 650.841248,496.936768 
	C654.277588,496.876160 655.599060,498.081421 655.537231,501.574921 
	C655.378113,510.565948 655.403992,519.562805 655.527100,528.554993 
	C655.572510,531.873779 654.548401,533.415649 650.954773,533.345886 
	C642.130798,533.174500 633.298340,533.158936 624.475342,533.354126 
	C620.895630,533.433350 619.867676,532.047791 619.932800,528.657227 
	C620.099182,519.999695 619.987305,511.336823 619.987427,502.200836 
M652.004028,530.000366 
	C652.004028,530.000366 651.965149,529.989990 652.563782,529.410217 
	C652.421875,519.924805 652.279907,510.439423 651.542419,500.330719 
	C646.588196,500.224487 641.634155,500.041901 636.679626,500.026581 
	C623.012024,499.984314 622.923401,500.012848 623.055176,513.695557 
	C623.108521,519.229797 623.642517,524.759277 624.642517,530.747559 
	C631.070435,530.830872 637.499756,531.023193 643.925720,530.945496 
	C646.616821,530.912964 649.301025,530.307861 652.004028,530.000366 
z"/>
<path id="left-batters-box" fill="#EAEBC9" opacity="1.000000" stroke="none" 
	d="
M557.528320,500.547119 
	C558.903198,499.065857 560.243530,497.171509 561.638306,497.130493 
	C570.794800,496.861053 579.964233,497.075378 589.126831,496.946198 
	C592.318176,496.901184 593.076355,498.372070 593.046448,501.217834 
	C592.948364,510.547852 592.940796,519.880371 593.049622,529.210144 
	C593.084412,532.193787 592.018005,533.374817 588.969360,533.332703 
	C579.973267,533.208374 570.972168,533.173523 561.977661,533.345764 
	C558.317078,533.415894 557.434448,531.737183 557.475159,528.484009 
	C557.589844,519.320984 557.517639,510.155609 557.528320,500.547119 
M561.557983,530.602783 
	C570.719360,530.498535 579.880737,530.394226 589.658020,529.659241 
	C589.763184,520.855408 589.817444,512.050537 589.999878,503.248291 
	C590.067566,499.984772 588.008789,499.986725 585.706116,500.003876 
	C577.555664,500.064514 569.404907,500.083557 560.556946,500.583282 
	C560.395203,507.672852 560.129944,514.762390 560.124268,521.852051 
	C560.122131,524.564453 560.713745,527.277344 560.995972,530.000427 
	C560.995972,530.000427 561.011658,529.963257 561.557983,530.602783 
z"/>
<path id="home-plate" fill="#FEFEFD" opacity="1.000000" stroke="none" 
	d="
M608.135620,523.251099 
	C602.624023,522.861877 599.493286,517.353943 600.480042,510.236206 
	C604.832764,510.236206 609.213074,510.236206 613.450317,510.236206 
	C615.838196,516.301025 612.138000,519.657043 608.135620,523.251099 
z"/>
<path id="pitchers-circle" fill="#F1F6E1" opacity="1.000000" stroke="none" 
	d="
M653.418213,339.607849 
	C663.721436,352.179474 662.679138,365.283783 650.288757,375.221985 
	C635.253845,387.281433 617.527588,389.971588 598.935120,388.552856 
	C588.725586,387.773804 578.956909,385.123291 569.994568,379.959229 
	C568.986267,379.378265 567.995728,378.762207 567.028076,378.115814 
	C548.471069,365.719421 548.343750,346.185547 566.958679,333.962280 
	C581.648010,324.316772 598.108643,321.820679 615.268738,323.513672 
	C629.447693,324.912537 642.647461,329.030182 653.418213,339.607849 
M621.592102,385.241577 
	C627.870117,383.226349 634.359131,381.694397 640.370728,379.069122 
	C647.315552,376.036346 653.115967,371.200897 656.435913,364.106384 
	C660.864685,354.642517 656.948853,343.871185 646.656921,336.631561 
	C626.361877,322.355408 590.925293,321.325867 570.012817,334.511627 
	C563.749268,338.460968 558.145996,343.176147 556.114502,350.736389 
	C553.519897,360.392303 557.632019,369.266785 568.213928,376.136230 
	C584.360596,386.618195 602.199890,388.269501 621.592102,385.241577 
z"/>
<path id="right-batter-box-dirt" fill="#9E8E29" opacity="1.000000" stroke="none" 
	d="
M623.957764,530.290894 
	C623.642517,524.759277 623.108521,519.229797 623.055176,513.695557 
	C622.923401,500.012848 623.012024,499.984314 636.679626,500.026581 
	C641.634155,500.041901 646.588196,500.224487 651.771118,501.110901 
	C651.988281,511.257416 651.976746,520.623718 651.965210,529.989990 
	C651.965149,529.989990 652.004028,530.000366 651.528687,530.007202 
	C642.021484,530.106323 632.989624,530.198608 623.957764,530.290894 
z"/>
<path id="left-batter-box-dirt" fill="#9E8E29" opacity="1.000000" stroke="none" 
	d="
M561.254272,500.118408 
	C569.404907,500.083557 577.555664,500.064514 585.706116,500.003876 
	C588.008789,499.986725 590.067566,499.984772 589.999878,503.248291 
	C589.817444,512.050537 589.763184,520.855408 588.885437,529.886230 
	C579.079102,530.063232 570.045410,530.013245 561.011658,529.963257 
	C561.011658,529.963257 560.995972,530.000427 561.020630,529.527039 
	C561.114990,519.408569 561.184570,509.763458 561.254272,500.118408 
z"/>
<path id="pitcher-mound-dirt" fill="#9D8D27" opacity="1.000000" stroke="none" 
	d="
M621.180481,385.384705 
	C602.199890,388.269501 584.360596,386.618195 568.213928,376.136230 
	C557.632019,369.266785 553.519897,360.392303 556.114502,350.736389 
	C558.145996,343.176147 563.749268,338.460968 570.012817,334.511627 
	C590.925293,321.325867 626.361877,322.355408 646.656921,336.631561 
	C656.948853,343.871185 660.864685,354.642517 656.435913,364.106384 
	C653.115967,371.200897 647.315552,376.036346 640.370728,379.069122 
	C634.359131,381.694397 627.870117,383.226349 621.180481,385.384705 
M623.331421,350.208862 
	C611.213562,350.209076 599.093750,350.328552 586.978882,350.138031 
	C583.265381,350.079651 582.090881,351.291199 582.097229,354.988861 
	C582.103516,358.655762 583.214478,359.917419 586.956177,359.863037 
	C599.901306,359.674835 612.853455,359.645905 625.797241,359.876587 
	C629.808655,359.948059 630.799805,358.612823 630.923279,354.741028 
	C631.103638,349.085602 627.421997,350.316620 623.331421,350.208862 
z"/>
<path id="pitchers-mound" fill="#F8FBE9" opacity="1.000000" stroke="none" 
	d="
M623.803955,350.208954 
	C627.421997,350.316620 631.103638,349.085602 630.923279,354.741028 
	C630.799805,358.612823 629.808655,359.948059 625.797241,359.876587 
	C612.853455,359.645905 599.901306,359.674835 586.956177,359.863037 
	C583.214478,359.917419 582.103516,358.655762 582.097229,354.988861 
	C582.090881,351.291199 583.265381,350.079651 586.978882,350.138031 
	C599.093750,350.328552 611.213562,350.209076 623.803955,350.208954 
z"/>
</svg>