<?xml version="1.0" encoding="UTF-8"?>
<svg version="1.1" xmlns="http://www.w3.org/2000/svg" width="53" height="69">
<path d="M0 0 C3.1875 2.25 3.1875 2.25 5 5 C5 6.32 5 7.64 5 9 C6.98 9 8.96 9 11 9 C11 9.99 11 10.98 11 12 C9.02 12.33 7.04 12.66 5 13 C5.825 13.886875 6.65 14.77375 7.5 15.6875 C9.46099476 18.01307407 9.97259478 18.74787194 10.3125 21.875 C10.209375 22.57625 10.10625 23.2775 10 24 C6.25 25.125 6.25 25.125 4 24 C4 27.63 4 31.26 4 35 C4.33 32.69 4.66 30.38 5 28 C10.625 26.875 10.625 26.875 14 28 C15.375 31.3125 15.375 31.3125 16 35 C15.48783936 35.61286865 14.97567871 36.2257373 14.44799805 36.85717773 C12.67659729 38.96272903 12.67659729 38.96272903 13.39379883 41.79321289 C13.92009888 43.36703735 13.92009888 43.36703735 14.45703125 44.97265625 C14.82763672 46.11927734 15.19824219 47.26589844 15.58007812 48.44726562 C15.98677734 49.64029297 16.39347656 50.83332031 16.8125 52.0625 C17.59312729 54.42730404 18.37062367 56.7931446 19.14453125 59.16015625 C19.49878174 60.20824463 19.85303223 61.25633301 20.21801758 62.33618164 C21 65 21 65 21 68 C18.29120665 69.35439668 15.99066732 69.06501451 13 69 C11.16377412 61.39277848 10.03675813 53.75362732 9 46 C8.34 47.32 7.68 48.64 7 50 C7.495 50.37125 7.99 50.7425 8.5 51.125 C10.62036754 53.77545942 10.28122499 55.69560641 10 59 C9.505 59.99 9.505 59.99 9 61 C7.68 61 6.36 61 5 61 C4.67 62.32 4.34 63.64 4 65 C6.97 65.495 6.97 65.495 10 66 C10 66.66 10 67.32 10 68 C5.6835078 68.76173392 2.25566547 69.16063604 -2 68 C-1.67 67.401875 -1.34 66.80375 -1 66.1875 C0.20787988 63.94613529 0.20787988 63.94613529 0 61 C-1.65 61 -3.3 61 -5 61 C-5 60.01 -5 59.02 -5 58 C-5.99 58 -6.98 58 -8 58 C-8.103125 59.27875 -8.20625 60.5575 -8.3125 61.875 C-8.48828125 64.0546875 -8.48828125 64.0546875 -9 66 C-12.31371 68.20914 -13.3446021 68.22481553 -17.1875 68.125 C-18.08855469 68.10695313 -18.98960938 68.08890625 -19.91796875 68.0703125 C-20.60503906 68.04710938 -21.29210938 68.02390625 -22 68 C-22.33 67.01 -22.66 66.02 -23 65 C-25.00016466 63.79117904 -25.00016466 63.79117904 -27 63 C-27.33 64.65 -27.66 66.3 -28 68 C-28.99 68 -29.98 68 -31 68 C-32.37432457 64.18243176 -31.67975039 60.92744671 -31 57 C-29.68 57 -28.36 57 -27 57 C-27 57.66 -27 58.32 -27 59 C-25.35 59 -23.7 59 -22 59 C-20.87993426 55.49555188 -21.06157709 52.4653351 -21.25 48.8125 C-21.35872043 37.25189461 -17.07087911 26.67262735 -13 16 C-13.66 16 -14.32 16 -15 16 C-17.41477645 8.02602596 -17.41477645 8.02602596 -15.8125 4.0625 C-11.34170756 -1.02495346 -6.36226998 -0.91951055 0 0 Z " fill="#4A4663" transform="translate(32,0)"/>
<path d="M0 0 C3.1875 2.25 3.1875 2.25 5 5 C5 6.32 5 7.64 5 9 C6.98 9 8.96 9 11 9 C11 9.99 11 10.98 11 12 C9.02 12.33 7.04 12.66 5 13 C5.825 13.886875 6.65 14.77375 7.5 15.6875 C9.46099476 18.01307407 9.97259478 18.74787194 10.3125 21.875 C10.209375 22.57625 10.10625 23.2775 10 24 C6.25 25.125 6.25 25.125 4 24 C4 27.63 4 31.26 4 35 C4.33 32.69 4.66 30.38 5 28 C10.625 26.875 10.625 26.875 14 28 C15.1875 31.5625 15.1875 31.5625 16 35 C14.35 34.67 12.7 34.34 11 34 C11.33 32.35 11.66 30.7 12 29 C10.35 29.33 8.7 29.66 7 30 C6.773125 31.11375 6.54625 32.2275 6.3125 33.375 C5 37 5 37 2.375 38.4375 C1.59125 38.623125 0.8075 38.80875 0 39 C0 38.34 0 37.68 0 37 C-1.9490625 37.061875 -1.9490625 37.061875 -3.9375 37.125 C-8.87885066 37.14068683 -13.22036588 36.21387533 -18 35 C-18.33 40.28 -18.66 45.56 -19 51 C-18.01 51 -17.02 51 -16 51 C-16 52.65 -16 54.3 -16 56 C-16.33 54.68 -16.66 53.36 -17 52 C-17.66 52 -18.32 52 -19 52 C-19 53.65 -19 55.3 -19 57 C-19.66 57 -20.32 57 -21 57 C-21 58.32 -21 59.64 -21 61 C-23.475 61.495 -23.475 61.495 -26 62 C-26.99 64.97 -26.99 64.97 -28 68 C-28.99 68 -29.98 68 -31 68 C-32.37432457 64.18243176 -31.67975039 60.92744671 -31 57 C-29.68 57 -28.36 57 -27 57 C-27 57.66 -27 58.32 -27 59 C-25.35 59 -23.7 59 -22 59 C-20.87993426 55.49555188 -21.06157709 52.4653351 -21.25 48.8125 C-21.35872043 37.25189461 -17.07087911 26.67262735 -13 16 C-13.66 16 -14.32 16 -15 16 C-17.41477645 8.02602596 -17.41477645 8.02602596 -15.8125 4.0625 C-11.34170756 -1.02495346 -6.36226998 -0.91951055 0 0 Z " fill="#304E6D" transform="translate(32,0)"/>
<path d="M0 0 C1.65 0 3.3 0 5 0 C5 1.32 5 2.64 5 4 C6.485 4.99 6.485 4.99 8 6 C7.63793457 6.53681396 7.27586914 7.07362793 6.90283203 7.62670898 C5.64588841 10.93085959 6.45807625 12.6437126 7.5546875 15.97265625 C7.92207031 17.11927734 8.28945313 18.26589844 8.66796875 19.44726562 C9.06628906 20.64029297 9.46460938 21.83332031 9.875 23.0625 C10.64669756 25.42725638 11.41508817 27.79309526 12.1796875 30.16015625 C12.52757324 31.20824463 12.87545898 32.25633301 13.23388672 33.33618164 C14 36 14 36 14 39 C11.29120665 40.35439668 8.99066732 40.06501451 6 40 C4.41046652 33.41478988 3.35868145 26.8515821 2.46484375 20.13671875 C2.07221206 17.13357823 2.07221206 17.13357823 1.44140625 14.76953125 C1 13 1 13 1 10 C0.67 10.45375 0.34 10.9075 0 11.375 C-3.0377843 13.84319974 -6.19187061 14.18843144 -10 15 C-10 13.68 -10 12.36 -10 11 C-12.64 10.67 -15.28 10.34 -18 10 C-18.12375 10.763125 -18.2475 11.52625 -18.375 12.3125 C-19 15 -19 15 -21 18 C-16.39499532 18.18058842 -13.19928196 17.86634754 -9 16 C-8.01 16 -7.02 16 -6 16 C-6 17.65 -6 19.3 -6 21 C-12.6 21 -19.2 21 -26 21 C-26 9.75 -26 9.75 -25 6 C-19 6.66666667 -13 7.33333333 -7 8 C-7 8.66 -7 9.32 -7 10 C-4.47753497 8.97296178 -4.47753497 8.97296178 -2 7 C-0.63099646 3.42003741 -0.63099646 3.42003741 0 0 Z " fill="#443E5B" transform="translate(39,29)"/>
<path d="M0 0 C3.1875 2.25 3.1875 2.25 5 5 C5 6.32 5 7.64 5 9 C6.98 9 8.96 9 11 9 C11 9.99 11 10.98 11 12 C9.02 12.33 7.04 12.66 5 13 C5.825 13.886875 6.65 14.77375 7.5 15.6875 C9.46099476 18.01307407 9.97259478 18.74787194 10.3125 21.875 C10.209375 22.57625 10.10625 23.2775 10 24 C6.25 25.125 6.25 25.125 4 24 C4 27.63 4 31.26 4 35 C4.33 32.69 4.66 30.38 5 28 C10.625 26.875 10.625 26.875 14 28 C15.1875 31.5625 15.1875 31.5625 16 35 C14.35 34.67 12.7 34.34 11 34 C11.33 32.35 11.66 30.7 12 29 C10.35 29.33 8.7 29.66 7 30 C6.773125 31.11375 6.54625 32.2275 6.3125 33.375 C5 37 5 37 2.375 38.4375 C1.59125 38.623125 0.8075 38.80875 0 39 C0 38.34 0 37.68 0 37 C-1.9490625 37.061875 -1.9490625 37.061875 -3.9375 37.125 C-8.87885066 37.14068683 -13.22036588 36.21387533 -18 35 C-18.33 40.28 -18.66 45.56 -19 51 C-18.01 51 -17.02 51 -16 51 C-16 52.65 -16 54.3 -16 56 C-16.33 54.68 -16.66 53.36 -17 52 C-17.66 52 -18.32 52 -19 52 C-19 53.65 -19 55.3 -19 57 C-19.66 57 -20.32 57 -21 57 C-21 58.32 -21 59.64 -21 61 C-23.475 61.495 -23.475 61.495 -26 62 C-26.99 64.97 -26.99 64.97 -28 68 C-28.99 68 -29.98 68 -31 68 C-32.37432457 64.18243176 -31.67975039 60.92744671 -31 57 C-29.68 57 -28.36 57 -27 57 C-27 57.66 -27 58.32 -27 59 C-25.35 59 -23.7 59 -22 59 C-20.87993426 55.49555188 -21.06157709 52.4653351 -21.25 48.8125 C-21.35872043 37.25189461 -17.07087911 26.67262735 -13 16 C-13.66 16 -14.32 16 -15 16 C-17.41477645 8.02602596 -17.41477645 8.02602596 -15.8125 4.0625 C-11.34170756 -1.02495346 -6.36226998 -0.91951055 0 0 Z M-13 3 C-15.31282587 6.46923881 -15.42478586 7.92205575 -15 12 C-13.54301727 13.68147353 -13.54301727 13.68147353 -12 15 C-12.28875 15.90363281 -12.5775 16.80726562 -12.875 17.73828125 C-13.24625 18.91777344 -13.6175 20.09726562 -14 21.3125 C-14.37125 22.48425781 -14.7425 23.65601563 -15.125 24.86328125 C-16.13434772 27.93886676 -16.13434772 27.93886676 -16 31 C-10.28537476 33.9815436 -5.43239876 34.64077536 1 34 C2.2279807 33.00022962 2.2279807 33.00022962 2.0625 31.00390625 C2.02089996 29.37890454 1.9792335 27.75390453 1.9375 26.12890625 C2 24 2 24 3 22 C4.65 22.33 6.3 22.66 8 23 C7.36934243 19.78147169 6.21979305 17.49198931 4.4375 14.75 C3.98246094 14.04359375 3.52742188 13.3371875 3.05859375 12.609375 C2.70925781 12.07828125 2.35992187 11.5471875 2 11 C2.66 11 3.32 11 4 11 C3.65654619 6.65751345 3.65654619 6.65751345 1.25 3.1875 C-3.95410735 0.44088779 -7.51218865 0.92912779 -13 3 Z " fill="#393555" transform="translate(32,0)"/>
<path d="M0 0 C1 1 1 1 1.0625 4.0625 C1.041875 5.031875 1.02125 6.00125 1 7 C0.071875 7.12375 0.071875 7.12375 -0.875 7.25 C-3.18437567 7.81258459 -3.18437567 7.81258459 -4.25 10.0625 C-4.4975 10.701875 -4.745 11.34125 -5 12 C-5 10.68 -5 9.36 -5 8 C-6.65 8 -8.3 8 -10 8 C-10 7.01 -10 6.02 -10 5 C-12.31 5 -14.62 5 -17 5 C-17.103125 6.27875 -17.20625 7.5575 -17.3125 8.875 C-17.48828125 11.0546875 -17.48828125 11.0546875 -18 13 C-21.6441774 15.4294516 -23.71241272 15.16179575 -28 15 C-28 14.01 -28 13.02 -28 12 C-30.97 11.505 -30.97 11.505 -34 11 C-33.67 10.34 -33.34 9.68 -33 9 C-31.35 9 -29.7 9 -28 9 C-28 7.68 -28 6.36 -28 5 C-27.34 5 -26.68 5 -26 5 C-26 3.35 -26 1.7 -26 0 C-20.22192976 -0.2358396 -15.48675196 0.13216954 -10 2 C-10 1.34 -10 0.68 -10 0 C-6.681572 -1.659214 -3.60735024 -0.57259528 0 0 Z " fill="#FAFAFB" transform="translate(39,52)"/>
<path d="M0 0 C2.80705084 0.08020145 4.48206883 0.45547237 6.4453125 2.51953125 C10 7.34375 10 7.34375 10 11 C7.525 10.505 7.525 10.505 5 10 C4.07719042 12.76842873 3.91629327 14.28943441 4 17.125 C4 18.40375 4 19.6825 4 21 C2.37905182 22.62094818 0.60872115 22.20950959 -1.625 22.25 C-6.49945624 22.22198588 -9.7058875 21.24040652 -14 19 C-13.67 17.68 -13.34 16.36 -13 15 C-10.36 14.67 -7.72 14.34 -5 14 C-5.350625 13.4225 -5.70125 12.845 -6.0625 12.25 C-7.14917407 9.64198224 -6.93065133 8.60582371 -6 6 C-4.35 5.67 -2.7 5.34 -1 5 C-0.67 3.35 -0.34 1.7 0 0 Z " fill="#E9CCBE" transform="translate(30,12)"/>
<path d="M0 0 C6 0.66666667 12 1.33333333 18 2 C18 2.66 18 3.32 18 4 C19.65 3.34 21.3 2.68 23 2 C21.61122646 5.35620271 20.08322035 7.07298728 17 9 C16.34 9 15.68 9 15 9 C15 7.68 15 6.36 15 5 C12.36 4.67 9.72 4.34 7 4 C6.87625 4.763125 6.7525 5.52625 6.625 6.3125 C6 9 6 9 4 12 C8.60500468 12.18058842 11.80071804 11.86634754 16 10 C16.99 10 17.98 10 19 10 C19 11.65 19 13.3 19 15 C12.4 15 5.8 15 -1 15 C-1 3.75 -1 3.75 0 0 Z " fill="#F8F8F9" transform="translate(14,35)"/>
<path d="M0 0 C2 2 2 2 2.1875 5 C2 8 2 8 1 10 C-0.32 10 -1.64 10 -3 10 C-3.33 11.32 -3.66 12.64 -4 14 C-1.03 14.495 -1.03 14.495 2 15 C2 15.66 2 16.32 2 17 C-2.3164922 17.76173392 -5.74433453 18.16063604 -10 17 C-9.67 16.401875 -9.34 15.80375 -9 15.1875 C-7.79212012 12.94613529 -7.79212012 12.94613529 -8 10 C-9.65 10 -11.3 10 -13 10 C-13 9.01 -13 8.02 -13 7 C-13.99 7 -14.98 7 -16 7 C-16.1546875 8.918125 -16.1546875 8.918125 -16.3125 10.875 C-16.48828125 13.0546875 -16.48828125 13.0546875 -17 15 C-20.31371 17.20914 -21.3446021 17.22481553 -25.1875 17.125 C-26.08855469 17.10695313 -26.98960938 17.08890625 -27.91796875 17.0703125 C-28.60503906 17.04710938 -29.29210938 17.02390625 -30 17 C-30.33 15.68 -30.66 14.36 -31 13 C-30.34 13 -29.68 13 -29 13 C-29 13.99 -29 14.98 -29 16 C-24.545 15.01 -24.545 15.01 -20 14 C-19.34 11.36 -18.68 8.72 -18 6 C-15.69 6 -13.38 6 -11 6 C-11 6.99 -11 7.98 -11 9 C-9.35 9 -7.7 9 -6 9 C-5.67 9.66 -5.34 10.32 -5 11 C-4.67 10.34 -4.34 9.68 -4 9 C-3.01 8.67 -2.02 8.34 -1 8 C-0.67 5.36 -0.34 2.72 0 0 Z " fill="#403B5B" transform="translate(40,51)"/>
<path d="M0 0 C0.66 0.33 1.32 0.66 2 1 C2 3.97 2 6.94 2 10 C2.33 7.69 2.66 5.38 3 3 C8.625 1.875 8.625 1.875 12 3 C13.1875 6.5625 13.1875 6.5625 14 10 C11.525 9.505 11.525 9.505 9 9 C9.33 7.35 9.66 5.7 10 4 C8.35 4.33 6.7 4.66 5 5 C4.773125 6.11375 4.54625 7.2275 4.3125 8.375 C3 12 3 12 0.375 13.4375 C-0.800625 13.7159375 -0.800625 13.7159375 -2 14 C-2 13.34 -2 12.68 -2 12 C-2.556875 12.03480469 -3.11375 12.06960937 -3.6875 12.10546875 C-9.54701038 12.313323 -13.6300336 11.34325807 -19 9 C-19 8.34 -19 7.68 -19 7 C-16 6 -16 6 -13.9375 6.9375 C-9.65213729 8.48752481 -5.5115974 8.1576869 -1 8 C-0.67 5.36 -0.34 2.72 0 0 Z " fill="#433D5A" transform="translate(34,25)"/>
<path d="M0 0 C0.33 0 0.66 0 1 0 C0.67 5.28 0.34 10.56 0 16 C0.99 16 1.98 16 3 16 C3 17.65 3 19.3 3 21 C2.67 19.68 2.34 18.36 2 17 C1.34 17 0.68 17 0 17 C0 18.65 0 20.3 0 22 C-0.66 22 -1.32 22 -2 22 C-2 23.32 -2 24.64 -2 26 C-3.65 26.33 -5.3 26.66 -7 27 C-7.66 28.98 -8.32 30.96 -9 33 C-9.99 33 -10.98 33 -12 33 C-13.37432457 29.18243176 -12.67975039 25.92744671 -12 22 C-10.68 22 -9.36 22 -8 22 C-8 22.66 -8 23.32 -8 24 C-6.35 24 -4.7 24 -3 24 C-1.47883091 19.25961262 -2.02746739 14.422608 -2.16015625 9.5078125 C-1.99847275 5.96654948 -1.28164414 3.28704026 0 0 Z " fill="#383354" transform="translate(13,35)"/>
<path d="M0 0 C1 1 1 1 1.0625 4.0625 C1.041875 5.031875 1.02125 6.00125 1 7 C0.071875 7.12375 0.071875 7.12375 -0.875 7.25 C-3.18437567 7.81258459 -3.18437567 7.81258459 -4.25 10.0625 C-4.4975 10.701875 -4.745 11.34125 -5 12 C-5 10.68 -5 9.36 -5 8 C-6.65 8 -8.3 8 -10 8 C-10 7.01 -10 6.02 -10 5 C-11.32 5 -12.64 5 -14 5 C-13.67 4.01 -13.34 3.02 -13 2 C-12.01 2 -11.02 2 -10 2 C-10 1.34 -10 0.68 -10 0 C-6.681572 -1.659214 -3.60735024 -0.57259528 0 0 Z " fill="#EAEAED" transform="translate(39,52)"/>
<path d="M0 0 C2.542876 4.79277148 3.99342431 9.90579227 5.625 15.0625 C5.94984375 16.06861328 6.2746875 17.07472656 6.609375 18.11132812 C7.06957031 19.55862305 7.06957031 19.55862305 7.5390625 21.03515625 C7.81959473 21.9156665 8.10012695 22.79617676 8.38916016 23.70336914 C9 26 9 26 9 29 C6.29120665 30.35439668 3.99066732 30.06501451 1 30 C-1.34012982 21.41952398 -1.61433836 12.83977082 -2 4 C-1.67 4 -1.34 4 -1 4 C-0.91435791 4.59014893 -0.82871582 5.18029785 -0.74047852 5.78833008 C-0.35064401 8.46347393 0.04338014 11.13798429 0.4375 13.8125 C0.57220703 14.74126953 0.70691406 15.67003906 0.84570312 16.62695312 C0.97783203 17.51962891 1.10996094 18.41230469 1.24609375 19.33203125 C1.36654053 20.15421143 1.4869873 20.9763916 1.61108398 21.82348633 C1.97617892 24.16924057 1.97617892 24.16924057 3 27 C5.01508358 27.73323796 5.01508358 27.73323796 7 28 C6.68192383 26.9941687 6.68192383 26.9941687 6.35742188 25.96801758 C5.3975889 22.91843835 4.4487012 19.86555965 3.5 16.8125 C3.16613281 15.75740234 2.83226562 14.70230469 2.48828125 13.61523438 C2.17246094 12.59365234 1.85664062 11.57207031 1.53125 10.51953125 C1.23798828 9.58214111 0.94472656 8.64475098 0.64257812 7.67895508 C0.00303483 5.01265242 -0.12123109 2.72986431 0 0 Z " fill="#3E3856" transform="translate(44,39)"/>
<path d="M0 0 C3.63 0.33 7.26 0.66 11 1 C10.01 1.495 10.01 1.495 9 2 C9 3.32 9 4.64 9 6 C9.66 6.33 10.32 6.66 11 7 C6.47351478 9.64964989 3.24601514 10.50442453 -2 10 C-2.66 9.34 -3.32 8.68 -4 8 C-3.01 8 -2.02 8 -1 8 C-0.67 5.36 -0.34 2.72 0 0 Z " fill="#394A68" transform="translate(20,38)"/>
<path d="M0 0 C2.2620864 2.2620864 2.61536178 3.54004538 3.47265625 6.578125 C3.73240234 7.49207031 3.99214844 8.40601563 4.25976562 9.34765625 C4.52466797 10.30542969 4.78957031 11.26320313 5.0625 12.25 C5.33126953 13.19230469 5.60003906 14.13460937 5.87695312 15.10546875 C7.17353378 19.71625184 8.35359707 24.24375125 9 29 C7.35 28.67 5.7 28.34 4 28 C2.47387772 21.64543203 1.49037325 15.43927143 0.875 8.9375 C0.78863281 8.07189453 0.70226563 7.20628906 0.61328125 6.31445312 C0.40400971 4.21011156 0.20130332 2.10511876 0 0 Z " fill="#8A7774" transform="translate(42,38)"/>
<path d="M0 0 C-0.1875 1.875 -0.1875 1.875 -1 4 C-3.5625 5.25 -3.5625 5.25 -6 6 C-5.7525 7.1446875 -5.7525 7.1446875 -5.5 8.3125 C-5 11 -5 11 -5 14 C-7.64 14 -10.28 14 -13 14 C-12.63071549 12.03648722 -12.22861359 10.0791246 -11.8125 8.125 C-11.59207031 7.03445312 -11.37164063 5.94390625 -11.14453125 4.8203125 C-10 2 -10 2 -7.5625 0.625 C-4.93645753 -0.01549816 -2.6922024 -0.15384014 0 0 Z " fill="#7B6A70" transform="translate(30,13)"/>
<path d="M0 0 C0.66 0 1.32 0 2 0 C2 1.32 2 2.64 2 4 C2.66 4 3.32 4 4 4 C4.33 6.31 4.66 8.62 5 11 C2.03 10.505 2.03 10.505 -1 10 C-1 11.32 -1 12.64 -1 14 C0.98 14 2.96 14 5 14 C5 14.33 5 14.66 5 15 C2.69 15 0.38 15 -2 15 C-2 14.01 -2 13.02 -2 12 C-4.97 11.505 -4.97 11.505 -8 11 C-7.67 10.34 -7.34 9.68 -7 9 C-5.35 9 -3.7 9 -2 9 C-2 7.68 -2 6.36 -2 5 C-1.34 5 -0.68 5 0 5 C0 3.35 0 1.7 0 0 Z " fill="#888598" transform="translate(13,52)"/>
<path d="M0 0 C0.825 0.28875 1.65 0.5775 2.5 0.875 C6.97231074 2.31252845 11.33430577 2.6496119 16 3 C16.33 4.65 16.66 6.3 17 8 C16.34 8 15.68 8 15 8 C15 7.34 15 6.68 15 6 C14.443125 6.03480469 13.88625 6.06960937 13.3125 6.10546875 C7.45298962 6.313323 3.3699664 5.34325807 -2 3 C-2 2.34 -2 1.68 -2 1 C-1.34 0.67 -0.68 0.34 0 0 Z " fill="#344564" transform="translate(17,31)"/>
<path d="M0 0 C0.33 0 0.66 0 1 0 C0.67 5.28 0.34 10.56 0 16 C0.99 16 1.98 16 3 16 C3 17.65 3 19.3 3 21 C2.67 19.68 2.34 18.36 2 17 C1.34 17 0.68 17 0 17 C0 18.65 0 20.3 0 22 C-0.99 22.33 -1.98 22.66 -3 23 C-2.505 21.515 -2.505 21.515 -2 20 C-1.96965173 16.50994875 -2.06667343 13.03174774 -2.16015625 9.54296875 C-1.99931255 5.98479217 -1.28929163 3.30159777 0 0 Z " fill="#464260" transform="translate(13,35)"/>
<path d="M0 0 C5.28 0 10.56 0 16 0 C16 1.32 16 2.64 16 4 C10.58201328 3.30834212 5.3177215 2.24200752 0 1 C0 0.67 0 0.34 0 0 Z " fill="#9795A6" transform="translate(13,50)"/>
<path d="M0 0 C1.2065625 0.0309375 1.2065625 0.0309375 2.4375 0.0625 C2.4375 1.3825 2.4375 2.7025 2.4375 4.0625 C3.0975 4.7225 3.7575 5.3825 4.4375 6.0625 C2.6875 7.1875 2.6875 7.1875 0.4375 8.0625 C-1.8125 7.1875 -1.8125 7.1875 -3.5625 6.0625 C-3.605221 4.39638095 -3.60313832 2.72867115 -3.5625 1.0625 C-2.5625 0.0625 -2.5625 0.0625 0 0 Z " fill="#D3B9B1" transform="translate(41.5625,28.9375)"/>
<path d="M0 0 C0 0.66 0 1.32 0 2 C1.65 1.34 3.3 0.68 5 0 C3.61122646 3.35620271 2.08322035 5.07298728 -1 7 C-1.66 7 -2.32 7 -3 7 C-3 5.68 -3 4.36 -3 3 C-4.65 2.67 -6.3 2.34 -8 2 C-4.91190305 0.23537317 -3.76687864 0 0 0 Z " fill="#C4B3B2" transform="translate(32,37)"/>
<path d="M0 0 C-0.33 0.99 -0.66 1.98 -1 3 C-3.875 4.125 -3.875 4.125 -7 5 C-7.99 5.33 -8.98 5.66 -10 6 C-9.67 4.35 -9.34 2.7 -9 1 C-5.92677456 0.08941469 -3.19902639 -0.08886184 0 0 Z " fill="#8A7673" transform="translate(30,13)"/>
<path d="M0 0 C0.99 0 1.98 0 3 0 C2.67 2.31 2.34 4.62 2 7 C1.01 7 0.02 7 -1 7 C-1.625 5.1875 -1.625 5.1875 -2 3 C-1.34 2.01 -0.68 1.02 0 0 Z " fill="#464160" transform="translate(2,61)"/>
<path d="M0 0 C9.41002278 0.96355353 9.41002278 0.96355353 14 2 C14 2.33 14 2.66 14 3 C9.66666667 3 5.33333333 3 1 3 C0.67 2.01 0.34 1.02 0 0 Z " fill="#D9D8DF" transform="translate(14,35)"/>
<path d="M0 0 C0.66 0 1.32 0 2 0 C2.33 2.97 2.66 5.94 3 9 C1.68 9 0.36 9 -1 9 C-1 8.01 -1 7.02 -1 6 C-0.34 6 0.32 6 1 6 C0.67 4.02 0.34 2.04 0 0 Z " fill="#EFEEF1" transform="translate(13,52)"/>
<path d="M0 0 C1.65 0.33 3.3 0.66 5 1 C5 1.66 5 2.32 5 3 C2.69 3.33 0.38 3.66 -2 4 C-2 3.34 -2 2.68 -2 2 C-1.34 2 -0.68 2 0 2 C0 1.34 0 0.68 0 0 Z " fill="#383354" transform="translate(37,65)"/>
<path d="M0 0 C0.6875 1.75 0.6875 1.75 1 4 C-0.4375 6.25 -0.4375 6.25 -2 8 C-2.66 6.68 -3.32 5.36 -4 4 C-3.01 3.67 -2.02 3.34 -1 3 C-0.67 2.01 -0.34 1.02 0 0 Z " fill="#D2B8B0" transform="translate(40,38)"/>
<path d="M0 0 C0.99 0.33 1.98 0.66 3 1 C3 2.65 3 4.3 3 6 C2.01 6 1.02 6 0 6 C0 4.02 0 2.04 0 0 Z " fill="#2D4766" transform="translate(34,42)"/>
</svg>
