<?xml version="1.0" encoding="UTF-8"?>
<svg version="1.1" xmlns="http://www.w3.org/2000/svg" width="48" height="74">
<path d="M0 0 C2.6703625 1.68654473 3.70676719 2.97268777 4.57421875 6.01171875 C4.73535156 6.72972656 4.89648438 7.44773437 5.0625 8.1875 C5.371875 9.445625 5.68125 10.70375 6 12 C6.99 12.33 7.98 12.66 9 13 C9.75 15.1875 9.75 15.1875 10 18 C9.34 18.7425 8.68 19.485 8 20.25 C5.46792536 23.73160262 5.47098458 25.62840003 6.11328125 29.79296875 C7.51210888 33.27463223 10.05915323 34.67648198 13.12109375 36.67578125 C15.68966572 38.48606378 16.4016074 39.93323791 17 43 C17.20306763 46.85828498 17.18265922 50.30418993 16 54 C17.32 54.66 18.64 55.32 20 56 C19.67 57.32 19.34 58.64 19 60 C14.25 61.125 14.25 61.125 12 60 C12 61.32 12 62.64 12 64 C11.01 64 10.02 64 9 64 C8.67 65.65 8.34 67.3 8 69 C10.97 69.495 10.97 69.495 14 70 C14 70.66 14 71.32 14 72 C12.37681021 72.36237263 10.7513642 72.71465157 9.125 73.0625 C8.22007813 73.25972656 7.31515625 73.45695312 6.3828125 73.66015625 C4 74 4 74 2 73 C2.33 70.69 2.66 68.38 3 66 C1.68 65.67 0.36 65.34 -1 65 C-1.33 62.69 -1.66 60.38 -2 58 C-3.98 58.495 -3.98 58.495 -6 59 C-6.33 60.98 -6.66 62.96 -7 65 C-8.32 65 -9.64 65 -11 65 C-10.7525 66.1446875 -10.7525 66.1446875 -10.5 67.3125 C-10 70 -10 70 -10 73 C-13.29696105 74.09898702 -14.40494903 73.87124444 -17.6875 73.0625 C-18.49574219 72.86785156 -19.30398437 72.67320313 -20.13671875 72.47265625 C-21.05904297 72.23869141 -21.05904297 72.23869141 -22 72 C-22 71.34 -22 70.68 -22 70 C-19.03 69.505 -19.03 69.505 -16 69 C-16.34786708 67.02463255 -16.34786708 67.02463255 -17 65 C-17.66 64.67 -18.32 64.34 -19 64 C-19.495 62.515 -19.495 62.515 -20 61 C-21.98 61 -23.96 61 -26 61 C-26.66 59.68 -27.32 58.36 -28 57 C-26.35 56.34 -24.7 55.68 -23 55 C-23.350625 54.01 -23.70125 53.02 -24.0625 52 C-25.29460215 47.58943142 -25.08137078 44.46966588 -24 40 C-21.04798628 36.25014473 -19.67422403 35.16855601 -15 34 C-14.67 29.71 -14.34 25.42 -14 21 C-15.65 20.67 -17.3 20.34 -19 20 C-17.55746343 16.63408134 -15.66735273 14.48952921 -13 12 C-16.3 11.01 -19.6 10.02 -23 9 C-23 8.34 -23 7.68 -23 7 C-19.37 7 -15.74 7 -12 7 C-11.67 5.68 -11.34 4.36 -11 3 C-8.52700244 -1.07317245 -4.27304049 -0.75101924 0 0 Z M7 46 C6.69504515 50.42664564 6.69504515 50.42664564 8.5 54.375 C8.995 54.91125 9.49 55.4475 10 56 C10 55.34 10 54.68 10 54 C10.66 54 11.32 54 12 54 C11.64950425 50.75791433 11.43778819 49.38472296 8.9375 47.1875 C8.298125 46.795625 7.65875 46.40375 7 46 Z M-17 47 C-19.23600438 49.59376508 -20 50.4833494 -20 54 C-19.01 54 -18.02 54 -17 54 C-16.67 51.69 -16.34 49.38 -16 47 C-16.33 47 -16.66 47 -17 47 Z " fill="#4F4863" transform="translate(28,0)"/>
<path d="M0 0 C2.6703625 1.68654473 3.70676719 2.97268777 4.57421875 6.01171875 C4.73535156 6.72972656 4.89648438 7.44773437 5.0625 8.1875 C5.5265625 10.0746875 5.5265625 10.0746875 6 12 C7.485 12.495 7.485 12.495 9 13 C9.75 15.1875 9.75 15.1875 10 18 C9.34 18.7425 8.68 19.485 8 20.25 C5.46792536 23.73160262 5.47098458 25.62840003 6.11328125 29.79296875 C7.51210888 33.27463223 10.05915323 34.67648198 13.12109375 36.67578125 C15.68966572 38.48606378 16.4016074 39.93323791 17 43 C17.4375 49.34375 17.4375 49.34375 15 53 C15 50.69 15 48.38 15 46 C14.01 46.495 14.01 46.495 13 47 C13 48.65 13 50.3 13 52 C11.35 50.35 9.7 48.7 8 47 C7.34 48.32 6.68 49.64 6 51 C5 50 5 50 4.90234375 48.15234375 C4.93489583 46.1015625 4.96744792 44.05078125 5 42 C6.485 42.495 6.485 42.495 8 43 C8.66 40.69 9.32 38.38 10 36 C5.26101734 33.54846925 0.87937667 33.76845794 -4.3125 33.875 C-5.56643555 33.88853516 -5.56643555 33.88853516 -6.84570312 33.90234375 C-8.89725969 33.92579011 -10.94866777 33.96165734 -13 34 C-13.33 36.64 -13.66 39.28 -14 42 C-14.33 42 -14.66 42 -15 42 C-15.33 40.02 -15.66 38.04 -16 36 C-20.45736352 39.28437312 -21.42431864 41.82133492 -22.3125 47.3125 C-22.56144311 49.20583798 -22.7970954 51.10117639 -23 53 C-23.33 53 -23.66 53 -24 53 C-25.18544518 46.70142981 -25.3517207 42.58620117 -22 37 C-18.03225806 34 -18.03225806 34 -15 34 C-14.67 29.71 -14.34 25.42 -14 21 C-15.65 20.67 -17.3 20.34 -19 20 C-17.55746343 16.63408134 -15.66735273 14.48952921 -13 12 C-16.3 11.01 -19.6 10.02 -23 9 C-23 8.34 -23 7.68 -23 7 C-19.37 7 -15.74 7 -12 7 C-11.67 5.68 -11.34 4.36 -11 3 C-8.52700244 -1.07317245 -4.27304049 -0.75101924 0 0 Z " fill="#393858" transform="translate(28,0)"/>
<path d="M0 0 C0.81210937 -0.020625 1.62421875 -0.04125 2.4609375 -0.0625 C7.25175214 -0.09371052 10.31016631 0.20703902 14.25 3.25 C13.375 8 13.375 8 12.25 10.25 C11.59 10.25 10.93 10.25 10.25 10.25 C9.92 12.89 9.59 15.53 9.25 18.25 C7.20840905 18.2772616 5.16671037 18.29651345 3.125 18.3125 C1.98804688 18.32410156 0.85109375 18.33570312 -0.3203125 18.34765625 C-3.5629156 18.255327 -6.56932612 17.86389906 -9.75 17.25 C-9.77684679 14.60409986 -9.79676357 11.95846904 -9.8125 9.3125 C-9.82087891 8.55775391 -9.82925781 7.80300781 -9.83789062 7.02539062 C-9.84652441 5.10005687 -9.80224333 3.17464419 -9.75 1.25 C-7.60552692 -0.89447308 -2.96113967 0.01844947 0 0 Z " fill="#EAEBEE" transform="translate(23.75,32.75)"/>
<path d="M0 0 C0.99 0 1.98 0 3 0 C3 1.32 3 2.64 3 4 C4.32 4 5.64 4 7 4 C7.33 5.98 7.66 7.96 8 10 C6.68 10.33 5.36 10.66 4 11 C4 14.3 4 17.6 4 21 C1.08913331 21.9702889 -0.90223685 22.16467847 -3.9375 22.1875 C-4.79214844 22.20167969 -5.64679687 22.21585938 -6.52734375 22.23046875 C-9.13909303 21.98703556 -10.75500652 21.3178268 -13 20 C-13.09765625 13.84765625 -13.09765625 13.84765625 -13 12 C-12.67 11.67 -12.34 11.34 -12 11 C-10.33333333 11 -8.66666667 11 -7 11 C-6.67 10.67 -6.34 10.34 -6 10 C-9.3 10 -12.6 10 -16 10 C-15.38125 9.236875 -14.7625 8.47375 -14.125 7.6875 C-11.94402948 5.00374191 -11.94402948 5.00374191 -10 2 C-7.87109375 1.5234375 -7.87109375 1.5234375 -5.4375 1.375 C-2.41923553 1.39637058 -2.41923553 1.39637058 0 0 Z " fill="#E5C9BC" transform="translate(28,9)"/>
<path d="M0 0 C2.5 0.4375 2.5 0.4375 5.5 2.4375 C8.4824577 2.46165584 8.4824577 2.46165584 11.6875 2.0625 C12.77417969 1.95164063 13.86085938 1.84078125 14.98046875 1.7265625 C16.22763672 1.58347656 16.22763672 1.58347656 17.5 1.4375 C19.65305957 5.29506507 20.89253254 7.98879785 20.5 12.4375 C17.86 12.4375 15.22 12.4375 12.5 12.4375 C11.84 10.7875 11.18 9.1375 10.5 7.4375 C8.52 7.4375 6.54 7.4375 4.5 7.4375 C3.84 9.0875 3.18 10.7375 2.5 12.4375 C-0.14 12.4375 -2.78 12.4375 -5.5 12.4375 C-6.16812227 1.0794214 -6.16812227 1.0794214 0 0 Z " fill="#F8F8F9" transform="translate(16.5,50.5625)"/>
<path d="M0 0 C3 0.25 3 0.25 5 2.25 C5 3.57 5 4.89 5 6.25 C7.64 6.25 10.28 6.25 13 6.25 C12.67 8.23 12.34 10.21 12 12.25 C14.97 12.745 14.97 12.745 18 13.25 C18 13.91 18 14.57 18 15.25 C16.37681021 15.61237263 14.7513642 15.96465157 13.125 16.3125 C11.76761719 16.60833984 11.76761719 16.60833984 10.3828125 16.91015625 C8 17.25 8 17.25 6 16.25 C6.33 13.94 6.66 11.63 7 9.25 C5.68 8.92 4.36 8.59 3 8.25 C2.67 5.94 2.34 3.63 2 1.25 C0.68 1.58 -0.64 1.91 -2 2.25 C-2.33 4.23 -2.66 6.21 -3 8.25 C-4.32 8.25 -5.64 8.25 -7 8.25 C-6.835 9.013125 -6.67 9.77625 -6.5 10.5625 C-6 13.25 -6 13.25 -6 16.25 C-9.29696105 17.34898702 -10.40494903 17.12124444 -13.6875 16.3125 C-14.49574219 16.11785156 -15.30398437 15.92320313 -16.13671875 15.72265625 C-16.75160156 15.56667969 -17.36648437 15.41070312 -18 15.25 C-18 14.59 -18 13.93 -18 13.25 C-15.125 12.625 -15.125 12.625 -12 12.25 C-11.34 12.91 -10.68 13.57 -10 14.25 C-9.67 11.94 -9.34 9.63 -9 7.25 C-7.68 7.25 -6.36 7.25 -5 7.25 C-5.04125 6.46625 -5.0825 5.6825 -5.125 4.875 C-4.93732608 0.93384762 -3.8500613 0.32083844 0 0 Z " fill="#464160" transform="translate(24,56.75)"/>
<path d="M0 0 C0.66 0.66 1.32 1.32 2 2 C1.67 2.66 1.34 3.32 1 4 C3.43798448 3.52319861 5.87537516 3.04365871 8.3125 2.5625 C9.34793945 2.36043945 9.34793945 2.36043945 10.40429688 2.15429688 C13.34289007 1.57225668 16.15456685 0.94847772 19 0 C19 2.97 19 5.94 19 9 C16.95840905 9.0272616 14.91671037 9.04651345 12.875 9.0625 C11.73804688 9.07410156 10.60109375 9.08570313 9.4296875 9.09765625 C6.1870844 9.005327 3.18067388 8.61389906 0 8 C0 5.36 0 2.72 0 0 Z " fill="#FAFAFB" transform="translate(14,42)"/>
<path d="M0 0 C3 0.875 3 0.875 4.875 2.8125 C6 4.875 6 4.875 6 6.875 C5.01 6.875 4.02 6.875 3 6.875 C2.67 7.865 2.34 8.855 2 9.875 C-1.3 9.215 -4.6 8.555 -8 7.875 C-5.70725157 -0.23780215 -5.70725157 -0.23780215 0 0 Z " fill="#2A4665" transform="translate(25,1.125)"/>
<path d="M0 0 C0 0.66 0 1.32 0 2 C-0.66 2.66 -1.32 3.32 -2 4 C0.9254644 4.2236068 0.9254644 4.2236068 3 3 C3 3.66 3 4.32 3 5 C3.66 5 4.32 5 5 5 C5.33 4.01 5.66 3.02 6 2 C6.66 2.33 7.32 2.66 8 3 C8.33 2.34 8.66 1.68 9 1 C9.66 1 10.32 1 11 1 C11 2.98 11 4.96 11 7 C7.33552568 8.64800856 4.18796534 9.33580973 0.1875 9.625 C-0.78832031 9.69976562 -1.76414062 9.77453125 -2.76953125 9.8515625 C-3.87361328 9.92503906 -3.87361328 9.92503906 -5 10 C-5.29296875 3.9453125 -5.29296875 3.9453125 -5 2 C-2 0 -2 0 0 0 Z " fill="#607990" transform="translate(20,36)"/>
<path d="M0 0 C3.2542015 2.83430453 4.5206753 4.68607774 5 9 C4.01 9.495 4.01 9.495 3 10 C3 11.65 3 13.3 3 15 C1.35 13.35 -0.3 11.7 -2 10 C-2.66 11.32 -3.32 12.64 -4 14 C-5 13 -5 13 -5.09765625 11.15234375 C-5.06510417 9.1015625 -5.03255208 7.05078125 -5 5 C-4.01 5.33 -3.02 5.66 -2 6 C-1.34 4.02 -0.68 2.04 0 0 Z " fill="#304B6A" transform="translate(38,37)"/>
<path d="M0 0 C4.62874552 2.8773283 5.59284607 8.01099969 7 13 C5.68 13 4.36 13 3 13 C3 11.68 3 10.36 3 9 C2.01 8.67 1.02 8.34 0 8 C0.99 8 1.98 8 3 8 C1.91744593 5.44309577 1.91744593 5.44309577 0 3 C-2.89706707 1.75322994 -2.89706707 1.75322994 -6 2 C-8.34939689 3.84141919 -9.6699947 5.3399894 -11 8 C-13.31 8 -15.62 8 -18 8 C-18 8.66 -18 9.32 -18 10 C-19.65 9.67 -21.3 9.34 -23 9 C-23 8.34 -23 7.68 -23 7 C-19.37 7 -15.74 7 -12 7 C-11.67 5.68 -11.34 4.36 -11 3 C-8.52500394 -1.07646409 -4.27554878 -0.74432631 0 0 Z " fill="#373354" transform="translate(28,0)"/>
<path d="M0 0 C0.36717663 7.4659249 0.36717663 7.4659249 -1.375 10 C-3 11 -3 11 -5 11 C-5.33 13.64 -5.66 16.28 -6 19 C-8 17 -8 17 -8.3125 13.25 C-8.20228587 9.20146762 -7.2363765 6.43443533 -5 3 C-1.6 0 -1.6 0 0 0 Z " fill="#7A8393" transform="translate(13,35)"/>
<path d="M0 0 C0.66 0 1.32 0 2 0 C2 1.65 2 3.3 2 5 C4.31 5.33 6.62 5.66 9 6 C9 6.66 9 7.32 9 8 C7.37681021 8.36237263 5.7513642 8.71465157 4.125 9.0625 C3.22007813 9.25972656 2.31515625 9.45695312 1.3828125 9.66015625 C-1 10 -1 10 -3 9 C-2.42655063 6.13275314 -2.1385485 5.1385485 0 3 C0 2.01 0 1.02 0 0 Z " fill="#514D6A" transform="translate(33,64)"/>
<path d="M0 0 C0.33 0.66 0.66 1.32 1 2 C-0.32 2 -1.64 2 -3 2 C-2.835 2.763125 -2.67 3.52625 -2.5 4.3125 C-2 7 -2 7 -2 10 C-5.29696105 11.09898702 -6.40494903 10.87124444 -9.6875 10.0625 C-10.49574219 9.86785156 -11.30398437 9.67320313 -12.13671875 9.47265625 C-12.75160156 9.31667969 -13.36648437 9.16070312 -14 9 C-14 8.34 -14 7.68 -14 7 C-11.125 6.375 -11.125 6.375 -8 6 C-7.34 6.66 -6.68 7.32 -6 8 C-5.67 5.69 -5.34 3.38 -5 1 C-3.35 0.67 -1.7 0.34 0 0 Z " fill="#383354" transform="translate(20,63)"/>
<path d="M0 0 C0.99 0.33 1.98 0.66 3 1 C5.22818441 1.06937062 7.45834524 1.08457084 9.6875 1.0625 C10.86699219 1.05347656 12.04648437 1.04445313 13.26171875 1.03515625 C14.16535156 1.02355469 15.06898437 1.01195313 16 1 C15.67 1.99 15.34 2.98 15 4 C9.72 4 4.44 4 -1 4 C-0.67 2.68 -0.34 1.36 0 0 Z " fill="#3A4B67" transform="translate(16,29)"/>
<path d="M0 0 C4.84455959 2.29015544 4.84455959 2.29015544 7 4 C7.9375 7.25 7.9375 7.25 8 10 C6.35 8.35 4.7 6.7 3 5 C2.34 6.32 1.68 7.64 1 9 C0 8 0 8 -0.09765625 6.15234375 C-0.06510417 4.1015625 -0.03255208 2.05078125 0 0 Z " fill="#3A3556" transform="translate(33,42)"/>
<path d="M0 0 C6.27 0.33 12.54 0.66 19 1 C19 1.33 19 1.66 19 2 C11.67481779 4.49056195 7.14299913 3.55107112 0 1 C0 0.67 0 0.34 0 0 Z " fill="#74728A" transform="translate(14,50)"/>
<path d="M0 0 C0.66 0.33 1.32 0.66 2 1 C1.34 1.66 0.68 2.32 0 3 C2.97 3.33 5.94 3.66 9 4 C8.67 4.99 8.34 5.98 8 7 C8 6.34 8 5.68 8 5 C6.948125 5.37125 5.89625 5.7425 4.8125 6.125 C0.81367786 7.04276246 -0.49128216 6.91384609 -4 5 C-2.25 1.125 -2.25 1.125 0 0 Z " fill="#4B445F" transform="translate(13,15)"/>
<path d="M0 0 C3.3 0 6.6 0 10 0 C8.68 0.33 7.36 0.66 6 1 C5.67 3.31 5.34 5.62 5 8 C4.01 7.67 3.02 7.34 2 7 C2.04125 6.21625 2.0825 5.4325 2.125 4.625 C2.28728734 1.83883881 2.28728734 1.83883881 0 0 Z " fill="#757289" transform="translate(9,63)"/>
<path d="M0 0 C0.66 0 1.32 0 2 0 C2.04254356 1.99954746 2.04080783 4.00041636 2 6 C1 7 1 7 -2.0625 7.0625 C-3.031875 7.041875 -4.00125 7.02125 -5 7 C-3.68 6.34 -2.36 5.68 -1 5 C-2.98 5 -4.96 5 -7 5 C-6.01 4.67 -5.02 4.34 -4 4 C-3.67 3.01 -3.34 2.02 -3 1 C-2.34 1.33 -1.68 1.66 -1 2 C-0.67 1.34 -0.34 0.68 0 0 Z " fill="#385774" transform="translate(29,37)"/>
<path d="M0 0 C-0.33 1.98 -0.66 3.96 -1 6 C-1.33 6 -1.66 6 -2 6 C-2 4.35 -2 2.7 -2 1 C-2.66 1 -3.32 1 -4 1 C-3.67 2.32 -3.34 3.64 -3 5 C-3.66 5 -4.32 5 -5 5 C-5.33 4.34 -5.66 3.68 -6 3 C-8.01669827 1.86649466 -8.01669827 1.86649466 -10 1 C-6.61981469 -0.04005702 -3.5219721 -0.08004482 0 0 Z " fill="#3C3757" transform="translate(37,63)"/>
<path d="M0 0 C4.75 0.875 4.75 0.875 7 2 C6.67 2.99 6.34 3.98 6 5 C4.02 4.34 2.04 3.68 0 3 C0 2.01 0 1.02 0 0 Z " fill="#CDB4AD" transform="translate(39,55)"/>
<path d="M0 0 C-0.33 1.32 -0.66 2.64 -1 4 C-1.66 4 -2.32 4 -3 4 C-3.99 4.495 -3.99 4.495 -5 5 C-5.66 4.67 -6.32 4.34 -7 4 C-7 3.34 -7 2.68 -7 2 C-4.35261084 0.5393715 -3.10551666 0 0 0 Z " fill="#D1B7B0" transform="translate(9,55)"/>
<path d="M0 0 C0.66 1.98 1.32 3.96 2 6 C0.68 6 -0.64 6 -2 6 C-2 4.68 -2 3.36 -2 2 C-2.99 1.67 -3.98 1.34 -5 1 C-2 0 -2 0 0 0 Z " fill="#322E4C" transform="translate(33,7)"/>
<path d="M0 0 C-0.33 0.99 -0.66 1.98 -1 3 C-3.97 3 -6.94 3 -10 3 C-4 0 -4 0 0 0 Z " fill="#2C4262" transform="translate(32,30)"/>
</svg>
