<?xml version="1.0" encoding="UTF-8"?>
<svg version="1.1" xmlns="http://www.w3.org/2000/svg" width="48" height="74">
<path d="M0 0 C2.670745 0.06773629 3.7562995 0.10507386 6 1.625 C7.0625 3.3125 7.0625 3.3125 8.0625 6.3125 C13.5075 6.8075 13.5075 6.8075 19.0625 7.3125 C19.0625 7.9725 19.0625 8.6325 19.0625 9.3125 C12.5625 12.3125 12.5625 12.3125 8.0625 12.3125 C8.866875 13.055 9.67125 13.7975 10.5 14.5625 C12.83238591 17.06554829 13.69784394 18.0305955 14.0625 21.3125 C12.7425 21.3125 11.4225 21.3125 10.0625 21.3125 C10.5575 27.7475 10.5575 27.7475 11.0625 34.3125 C12.7125 34.9725 14.3625 35.6325 16.0625 36.3125 C19.09990797 39.17944119 19.99261935 40.67728488 20.453125 44.86328125 C20.40671875 46.10464844 20.3603125 47.34601562 20.3125 48.625 C20.27640625 49.87925781 20.2403125 51.13351563 20.203125 52.42578125 C20.15671875 53.37839844 20.1103125 54.33101562 20.0625 55.3125 C21.3825 55.9725 22.7025 56.6325 24.0625 57.3125 C23.4025 58.6325 22.7425 59.9525 22.0625 61.3125 C20.0825 61.3125 18.1025 61.3125 16.0625 61.3125 C15.4025 62.6325 14.7425 63.9525 14.0625 65.3125 C13.4025 65.3125 12.7425 65.3125 12.0625 65.3125 C12.0625 66.3025 12.0625 67.2925 12.0625 68.3125 C14.0425 69.3025 16.0225 70.2925 18.0625 71.3125 C18.0625 71.9725 18.0625 72.6325 18.0625 73.3125 C13.40712607 74.15046731 9.69171525 74.3286692 5.0625 73.3125 C5.7225 71.6625 6.3825 70.0125 7.0625 68.3125 C5.1370356 66.0888932 5.1370356 66.0888932 2.0625 65.3125 C2.0625 63.6625 2.0625 62.0125 2.0625 60.3125 C0.7425 59.9825 -0.5775 59.6525 -1.9375 59.3125 C-2.2675 61.2925 -2.5975 63.2725 -2.9375 65.3125 C-3.576875 65.415625 -4.21625 65.51875 -4.875 65.625 C-5.555625 65.851875 -6.23625 66.07875 -6.9375 66.3125 C-7.2675 67.3025 -7.5975 68.2925 -7.9375 69.3125 C-7.2775 69.6425 -6.6175 69.9725 -5.9375 70.3125 C-5.9375 71.3025 -5.9375 72.2925 -5.9375 73.3125 C-10.56671525 74.3286692 -14.28212607 74.15046731 -18.9375 73.3125 C-18.6075 72.3225 -18.2775 71.3325 -17.9375 70.3125 C-15.375 69.125 -15.375 69.125 -12.9375 68.3125 C-12.9375 67.3225 -12.9375 66.3325 -12.9375 65.3125 C-13.9275 64.9825 -14.9175 64.6525 -15.9375 64.3125 C-16.5975 63.3225 -17.2575 62.3325 -17.9375 61.3125 C-21.00306598 60.57906572 -21.00306598 60.57906572 -23.9375 60.3125 C-23.9375 58.9925 -23.9375 57.6725 -23.9375 56.3125 C-22.4525 55.8175 -22.4525 55.8175 -20.9375 55.3125 C-20.97230469 54.43207031 -21.00710937 53.55164062 -21.04296875 52.64453125 C-21.07003906 51.48308594 -21.09710937 50.32164063 -21.125 49.125 C-21.15980469 47.97644531 -21.19460937 46.82789063 -21.23046875 45.64453125 C-20.90909039 41.98938802 -20.12708036 40.21810427 -17.9375 37.3125 C-13.69612069 34.3125 -13.69612069 34.3125 -10.9375 34.3125 C-10.6075 30.3525 -10.2775 26.3925 -9.9375 22.3125 C-10.9275 21.9825 -11.9175 21.6525 -12.9375 21.3125 C-13.5625 18.5 -13.5625 18.5 -13.9375 15.3125 C-13.2775 14.3225 -12.6175 13.3325 -11.9375 12.3125 C-11.2775 12.3125 -10.6175 12.3125 -9.9375 12.3125 C-9.834375 11.590625 -9.73125 10.86875 -9.625 10.125 C-8.23947569 4.45694602 -6.0078412 0.47681279 0 0 Z M-14 48 C-16.18754202 50.16452233 -16.18754202 50.16452233 -16.1875 53.0625 C-16.105 53.805 -16.0225 54.5475 -15.9375 55.3125 C-14.6175 54.9825 -13.2975 54.6525 -11.9375 54.3125 C-11.6075 51.6725 -11.2775 49.0325 -10.9375 46.3125 C-12.25265307 46.20696037 -12.25265307 46.20696037 -14 48 Z M12.0625 47.3125 C11.85279441 51.45343698 11.85279441 51.45343698 13.0625 55.3125 C14.0525 55.3125 15.0425 55.3125 16.0625 55.3125 C15.56418276 51.62495243 14.96182357 49.70759338 12.0625 47.3125 Z " fill="#423C5B" transform="translate(23.9375,-0.3125)"/>
<path d="M0 0 C1.36801758 -0.00580078 1.36801758 -0.00580078 2.76367188 -0.01171875 C3.70919922 -0.00011719 4.65472656 0.01148438 5.62890625 0.0234375 C6.57056641 0.01183594 7.51222656 0.00023437 8.48242188 -0.01171875 C13.50360835 0.00954245 17.15503227 0.06580007 21.19140625 3.3984375 C24.51261341 7.43133191 25.39390703 12.24913187 25.19140625 17.3984375 C24.53140625 18.3884375 23.87140625 19.3784375 23.19140625 20.3984375 C21.87140625 18.7484375 20.55140625 17.0984375 19.19140625 15.3984375 C19.19140625 17.3784375 19.19140625 19.3584375 19.19140625 21.3984375 C20.30515625 21.2746875 20.30515625 21.2746875 21.44140625 21.1484375 C24.97297652 21.46948934 25.95770989 22.75109367 28.19140625 25.3984375 C24.90163817 26.49502686 23.47836858 26.19796888 20.19140625 25.3984375 C19.86140625 27.0484375 19.53140625 28.6984375 19.19140625 30.3984375 C18.53140625 30.3984375 17.87140625 30.3984375 17.19140625 30.3984375 C16.86140625 31.7184375 16.53140625 33.0384375 16.19140625 34.3984375 C15.86140625 33.0784375 15.53140625 31.7584375 15.19140625 30.3984375 C13.87140625 30.3984375 12.55140625 30.3984375 11.19140625 30.3984375 C10.53140625 28.4184375 9.87140625 26.4384375 9.19140625 24.3984375 C7.21140625 24.3984375 5.23140625 24.3984375 3.19140625 24.3984375 C2.20140625 26.8734375 2.20140625 26.8734375 1.19140625 29.3984375 C-1.77859375 29.3984375 -4.74859375 29.3984375 -7.80859375 29.3984375 C-7.31061005 25.66355973 -6.93367619 23.58606115 -4.80859375 20.3984375 C-4.35087312 17.65970795 -4.35087312 17.65970795 -4.18359375 14.7109375 C-4.10882812 13.71707031 -4.0340625 12.72320312 -3.95703125 11.69921875 C-3.90804688 10.93996094 -3.8590625 10.18070313 -3.80859375 9.3984375 C-4.79859375 9.0684375 -5.78859375 8.7384375 -6.80859375 8.3984375 C-7.99609375 5.8359375 -7.99609375 5.8359375 -8.80859375 3.3984375 C-5.80989745 0.79563287 -3.96057498 0.01620498 0 0 Z " fill="#423D5D" transform="translate(17.80859375,33.6015625)"/>
<path d="M0 0 C7.84570433 0.74720994 13.78891386 1.70632906 19 8 C19 8.33 19 8.66 19 9 C15.7 9.33 12.4 9.66 9 10 C9.33 10.66 9.66 11.32 10 12 C10 11.67 10 11.34 10 11 C11.65 11 13.3 11 15 11 C15.33 13.64 15.66 16.28 16 19 C10.75470658 22.36236758 6.87685297 22.26940024 1 21 C0.34 20.67 -0.32 20.34 -1 20 C-1 16.7 -1 13.4 -1 10 C-2.32 10 -3.64 10 -5 10 C-5 8.35 -5 6.7 -5 5 C-3.35 4.34 -1.7 3.68 0 3 C0 2.01 0 1.02 0 0 Z " fill="#EDD0C1" transform="translate(17,10)"/>
<path d="M0 0 C0.88945312 0.00966797 1.77890625 0.01933594 2.6953125 0.02929688 C3.61570312 0.05443359 4.53609375 0.07957031 5.484375 0.10546875 C6.42023437 0.11900391 7.35609375 0.13253906 8.3203125 0.14648438 C10.62558827 0.18176921 12.9296856 0.23106594 15.234375 0.29296875 C15.564375 1.94296875 15.894375 3.59296875 16.234375 5.29296875 C15.244375 4.96296875 14.254375 4.63296875 13.234375 4.29296875 C12.904375 5.28296875 12.574375 6.27296875 12.234375 7.29296875 C11.574375 6.96296875 10.914375 6.63296875 10.234375 6.29296875 C9.904375 6.95296875 9.574375 7.61296875 9.234375 8.29296875 C7.914375 8.29296875 6.594375 8.29296875 5.234375 8.29296875 C4.904375 7.63296875 4.574375 6.97296875 4.234375 6.29296875 C3.574375 6.29296875 2.914375 6.29296875 2.234375 6.29296875 C2.234375 6.95296875 2.234375 7.61296875 2.234375 8.29296875 C1.574375 8.29296875 0.914375 8.29296875 0.234375 8.29296875 C0.564375 7.30296875 0.894375 6.31296875 1.234375 5.29296875 C0.904375 5.29296875 0.574375 5.29296875 0.234375 5.29296875 C0.234375 7.27296875 0.234375 9.25296875 0.234375 11.29296875 C2.15135437 11.15130518 4.06795223 11.00447291 5.984375 10.85546875 C7.05171875 10.77425781 8.1190625 10.69304688 9.21875 10.609375 C11.67117462 10.35206102 13.87358791 9.97484657 16.234375 9.29296875 C16.27679223 11.6259165 16.27530437 13.95999442 16.234375 16.29296875 C15.234375 17.29296875 15.234375 17.29296875 13.46850586 17.40649414 C12.71964111 17.40125732 11.97077637 17.39602051 11.19921875 17.390625 C10.39033203 17.38740234 9.58144531 17.38417969 8.74804688 17.38085938 C7.89791016 17.37248047 7.04777344 17.36410156 6.171875 17.35546875 C5.31787109 17.35095703 4.46386719 17.34644531 3.58398438 17.34179688 C1.46741837 17.32997248 -0.64911185 17.31203644 -2.765625 17.29296875 C-2.765625 14.65296875 -2.765625 12.01296875 -2.765625 9.29296875 C-3.384375 9.23109375 -4.003125 9.16921875 -4.640625 9.10546875 C-6.765625 8.29296875 -6.765625 8.29296875 -8.015625 5.73046875 C-8.263125 4.92609375 -8.510625 4.12171875 -8.765625 3.29296875 C-5.76395699 0.68007099 -3.96935189 -0.07633369 0 0 Z " fill="#F1F3F5" transform="translate(17.765625,33.70703125)"/>
<path d="M0 0 C1.26457031 0.12568359 1.26457031 0.12568359 2.5546875 0.25390625 C3.65039062 0.35574219 4.74609375 0.45757812 5.875 0.5625 C6.96554688 0.66691406 8.05609375 0.77132812 9.1796875 0.87890625 C11.95152023 1.22639404 11.95152023 1.22639404 14 0 C16.9375 -0.375 16.9375 -0.375 20 0 C22.70251043 2.97276147 22.98956113 4.78774291 23.1875 8.8125 C23.0946875 10.3903125 23.0946875 10.3903125 23 12 C22.34 12 21.68 12 21 12 C20.67 13.32 20.34 14.64 20 16 C19.67 14.68 19.34 13.36 19 12 C17.68 12 16.36 12 15 12 C14.34 10.02 13.68 8.04 13 6 C11.02 6 9.04 6 7 6 C6.34 7.65 5.68 9.3 5 11 C2.03 11 -0.94 11 -4 11 C-3.48483718 6.56959974 -2.37841589 3.74297622 0 0 Z " fill="#F3F3F5" transform="translate(14,52)"/>
<path d="M0 0 C1.87109375 0.29296875 1.87109375 0.29296875 3.80859375 1.60546875 C4.87109375 3.29296875 4.87109375 3.29296875 5.87109375 6.29296875 C11.31609375 6.78796875 11.31609375 6.78796875 16.87109375 7.29296875 C16.87109375 7.95296875 16.87109375 8.61296875 16.87109375 9.29296875 C13.90109375 10.28296875 10.93109375 11.27296875 7.87109375 12.29296875 C8.20109375 11.63296875 8.53109375 10.97296875 8.87109375 10.29296875 C2.93109375 9.96296875 -3.00890625 9.63296875 -9.12890625 9.29296875 C-9.12890625 10.61296875 -9.12890625 11.93296875 -9.12890625 13.29296875 C-10.44890625 12.96296875 -11.76890625 12.63296875 -13.12890625 12.29296875 C-12.53368288 10.85174262 -11.92733006 9.41511007 -11.31640625 7.98046875 C-10.97996094 7.17996094 -10.64351562 6.37945312 -10.296875 5.5546875 C-7.69321967 0.51282651 -5.44958527 -0.20998402 0 0 Z " fill="#353454" transform="translate(26.12890625,-0.29296875)"/>
<path d="M0 0 C0.66 0.33 1.32 0.66 2 1 C1.01 1.66 0.02 2.32 -1 3 C-0.38125 4.5778125 -0.38125 4.5778125 0.25 6.1875 C0.4975 7.445625 0.745 8.70375 1 10 C-0.875 12.5625 -0.875 12.5625 -3 15 C-3.38448878 18.76799008 -2.92654761 21.29380956 -2 25 C-4.97 25.33 -7.94 25.66 -11 26 C-11 24.68 -11 23.36 -11 22 C-10.01 21.67 -9.02 21.34 -8 21 C-8.03480469 20.11957031 -8.06960938 19.23914063 -8.10546875 18.33203125 C-8.13253906 17.17058594 -8.15960938 16.00914063 -8.1875 14.8125 C-8.22230469 13.66394531 -8.25710938 12.51539063 -8.29296875 11.33203125 C-7.97152295 7.67612102 -7.18731979 5.90778768 -5 3 C-2.4375 1.125 -2.4375 1.125 0 0 Z " fill="#5C677B" transform="translate(11,34)"/>
<path d="M0 0 C2.97 0.495 2.97 0.495 6 1 C6 1.33 6 1.66 6 2 C4.35 2.33 2.7 2.66 1 3 C0.67 4.65 0.34 6.3 0 8 C1.32 8 2.64 8 4 8 C4 11.3 4 14.6 4 18 C5.72722728 18.22384382 7.45696007 18.42839969 9.1875 18.625 C10.15042969 18.74101562 11.11335938 18.85703125 12.10546875 18.9765625 C15.24075323 19.00194942 17.19486535 18.34359283 20 17 C20.33 18.65 20.66 20.3 21 22 C14.4 22 7.8 22 1 22 C1.33 18.04 1.66 14.08 2 10 C1.01 9.67 0.02 9.34 -1 9 C-1.625 6.1875 -1.625 6.1875 -2 3 C-1.34 2.01 -0.68 1.02 0 0 Z " fill="#4E4762" transform="translate(12,12)"/>
<path d="M0 0 C6.27 0 12.54 0 19 0 C18.01 1.485 18.01 1.485 17 3 C16.34 3 15.68 3 15 3 C16.2065625 4.11375 16.2065625 4.11375 17.4375 5.25 C19.76988591 7.75304829 20.63534394 8.7180955 21 12 C19.68 12 18.36 12 17 12 C16.67 12.99 16.34 13.98 16 15 C15.67 14.01 15.34 13.02 15 12 C13.68 12.33 12.36 12.66 11 13 C11.33 13.99 11.66 14.98 12 16 C10.02 16 8.04 16 6 16 C6.99 15.34 7.98 14.68 9 14 C8.67 13.01 8.34 12.02 8 11 C10.04698414 8.95301586 14.30411241 9.29954307 17 9 C12.56443409 3.13871648 6.98543666 2.37034882 0 1 C0 0.67 0 0.34 0 0 Z " fill="#433D5B" transform="translate(17,9)"/>
<path d="M0 0 C0.66 0 1.32 0 2 0 C2.52759928 7.84071157 1.66072807 13.02173712 -2 20 C0.97 20 3.94 20 7 20 C5.68 20.33 4.36 20.66 3 21 C2.67 22.65 2.34 24.3 2 26 C1.01 25.67 0.02 25.34 -1 25 C-1 24.01 -1 23.02 -1 22 C-1.99 21.67 -2.98 21.34 -4 21 C-4.66 20.01 -5.32 19.02 -6 18 C-8.05925139 17.27617533 -8.05925139 17.27617533 -10 17 C-9.030625 16.71125 -8.06125 16.4225 -7.0625 16.125 C-3.89335797 15.35785318 -3.89335797 15.35785318 -3 13 C-3.66 12.67 -4.32 12.34 -5 12 C-3.68 11.67 -2.36 11.34 -1 11 C-0.67 8.69 -0.34 6.38 0 4 C-0.99 4.99 -1.98 5.98 -3 7 C-3.66 6.67 -4.32 6.34 -5 6 C-3.38405168 3.95880212 -1.7143618 1.95927063 0 0 Z M-1 26 C-0.34 26.66 0.32 27.32 1 28 C0.34 28 -0.32 28 -1 28 C-1 27.34 -1 26.68 -1 26 Z " fill="#3A3555" transform="translate(12,43)"/>
<path d="M0 0 C2.84538652 0.29435033 3.81733745 0.78351105 5.6875 3 C7.38929136 6.88980883 8.1674941 10.74086437 8 15 C7.01 16.485 7.01 16.485 6 18 C5.566875 16.9275 5.13375 15.855 4.6875 14.75 C3.7206621 12.44800499 2.93990377 10.92877484 1.3125 9 C-0.6258038 6.0463942 -0.19846852 3.44012106 0 0 Z " fill="#778091" transform="translate(35,36)"/>
<path d="M0 0 C0.33 0 0.66 0 1 0 C1 1.65 1 3.3 1 5 C0.360625 5.103125 -0.27875 5.20625 -0.9375 5.3125 C-1.618125 5.539375 -2.29875 5.76625 -3 6 C-3.33 6.99 -3.66 7.98 -4 9 C-3.34 9.33 -2.68 9.66 -2 10 C-2 10.99 -2 11.98 -2 13 C-6.62921525 14.0161692 -10.34462607 13.83796731 -15 13 C-14.67 12.01 -14.34 11.02 -14 10 C-12.34385343 9.61781233 -10.67542976 9.28604898 -9 9 C-8.67 9.33 -8.34 9.66 -8 10 C-7.34 9.67 -6.68 9.34 -6 9 C-5.34444881 6.47266765 -5.34444881 6.47266765 -5 4 C-3.68 4 -2.36 4 -1 4 C-0.67 2.68 -0.34 1.36 0 0 Z " fill="#383354" transform="translate(20,60)"/>
<path d="M0 0 C3.625 0.25 3.625 0.25 5.5625 1.5625 C6.625 3.25 6.625 3.25 6.625 6.25 C2.335 6.25 -1.955 6.25 -6.375 6.25 C-3.99332061 0.29580153 -3.99332061 0.29580153 0 0 Z " fill="#254666" transform="translate(23.375,1.75)"/>
<path d="M0 0 C0.99 0.33 1.98 0.66 3 1 C1.68 2.32 0.36 3.64 -1 5 C-0.34 5 0.32 5 1 5 C1 4.34 1 3.68 1 3 C2.32 3 3.64 3 5 3 C5.33 3.66 5.66 4.32 6 5 C9.465 4.505 9.465 4.505 13 4 C13 4.66 13 5.32 13 6 C10.36 6.33 7.72 6.66 5 7 C5 7.66 5 8.32 5 9 C2.69 9 0.38 9 -2 9 C-2.125 5.625 -2.125 5.625 -2 2 C-1.34 1.34 -0.68 0.68 0 0 Z " fill="#5B748C" transform="translate(19,37)"/>
<path d="M0 0 C0.33 0 0.66 0 1 0 C1.33 1.65 1.66 3.3 2 5 C2.99 4.67 3.98 4.34 5 4 C4.979375 4.7425 4.95875 5.485 4.9375 6.25 C4.90442293 9.2422434 4.90442293 9.2422434 6 13 C1.545 13.495 1.545 13.495 -3 14 C-3 12.68 -3 11.36 -3 10 C-2.01 9.67 -1.02 9.34 0 9 C0 6.03 0 3.06 0 0 Z " fill="#48415E" transform="translate(3,46)"/>
<path d="M0 0 C2.875 -0.1875 2.875 -0.1875 6 0 C8 3 8 3 8 7 C9.32 7 10.64 7 12 7 C12.33 8.65 12.66 10.3 13 12 C10 11 10 11 8 9 C7.01 8.67 6.02 8.34 5 8 C5 6.35 5 4.7 5 3 C3.15274948 2.30840599 3.15274948 2.30840599 1 2 C0.01 2.66 -0.98 3.32 -2 4 C-1.34 2.68 -0.68 1.36 0 0 Z " fill="#3B3657" transform="translate(21,57)"/>
<path d="M0 0 C0.33 0 0.66 0 1 0 C1.33 3.63 1.66 7.26 2 11 C4.475 11.99 4.475 11.99 7 13 C9.64164196 15.64164196 10.91602857 17.05532144 11.25 20.8125 C11.1675 21.534375 11.085 22.25625 11 23 C10.34 23 9.68 23 9 23 C8.84144531 22.37351562 8.68289062 21.74703125 8.51953125 21.1015625 C7.81447037 18.63190174 7.09223106 16.32636616 6 14 C3.49552484 12.78130071 3.49552484 12.78130071 1 12 C-1.1554619 7.68907621 -1.10316859 4.6333081 0 0 Z " fill="#373354" transform="translate(33,23)"/>
<path d="M0 0 C0.33 0 0.66 0 1 0 C1 2.64 1 5.28 1 8 C7.27 7.67 13.54 7.34 20 7 C20 7.66 20 8.32 20 9 C14.47207874 10.64867827 10.75713665 11.19487742 5 10 C4.030625 9.814375 3.06125 9.62875 2.0625 9.4375 C1.0415625 9.2209375 1.0415625 9.2209375 0 9 C0 6.03 0 3.06 0 0 Z " fill="#747189" transform="translate(14,43)"/>
<path d="M0 0 C6.27 0 12.54 0 19 0 C16 2 16 2 14 2 C13.67 2.99 13.34 3.98 13 5 C12.154375 4.71125 11.30875 4.4225 10.4375 4.125 C6.97638959 2.99227296 3.50627443 1.98175684 0 1 C0 0.67 0 0.34 0 0 Z " fill="#3F4F6A" transform="translate(17,9)"/>
<path d="M0 0 C0.66 0.33 1.32 0.66 2 1 C2 2.32 2 3.64 2 5 C-3.94 5 -9.88 5 -16 5 C-16 4.67 -16 4.34 -16 4 C-11.71 4 -7.42 4 -3 4 C-2.67 3.01 -2.34 2.02 -2 1 C-1.34 0.67 -0.68 0.34 0 0 Z " fill="#5A637C" transform="translate(31,29)"/>
<path d="M0 0 C0.66 0 1.32 0 2 0 C2 0.66 2 1.32 2 2 C3.11375 1.87625 3.11375 1.87625 4.25 1.75 C7.78157027 2.07105184 8.76630364 3.35265617 11 6 C7.71023192 7.09658936 6.28696233 6.79953138 3 6 C3 5.34 3 4.68 3 4 C2.34 4 1.68 4 1 4 C0.67 2.68 0.34 1.36 0 0 Z " fill="#9A8890" transform="translate(35,53)"/>
<path d="M0 0 C0.66 0.33 1.32 0.66 2 1 C1.05125 1.70125 0.1025 2.4025 -0.875 3.125 C-3.99854626 5.69603218 -5.07381296 8.01739573 -6 12 C-6.66 12 -7.32 12 -8 12 C-7.63166144 5.61546499 -7.63166144 5.61546499 -4.5625 2.625 C-2 1 -2 1 0 0 Z " fill="#383455" transform="translate(11,34)"/>
<path d="M0 0 C0.99 0.33 1.98 0.66 3 1 C2.67 2.65 2.34 4.3 2 6 C-2.455 6.495 -2.455 6.495 -7 7 C-7 6.67 -7 6.34 -7 6 C-4.36 5.67 -1.72 5.34 1 5 C-0.65 4.67 -2.3 4.34 -4 4 C-3.67 3.01 -3.34 2.02 -3 1 C-2.34 1.33 -1.68 1.66 -1 2 C-0.67 1.34 -0.34 0.68 0 0 Z " fill="#365472" transform="translate(31,38)"/>
<path d="M0 0 C2.31 0 4.62 0 7 0 C5.68 0.33 4.36 0.66 3 1 C2.67 2.65 2.34 4.3 2 6 C1.01 5.67 0.02 5.34 -1 5 C-0.67 3.35 -0.34 1.7 0 0 Z M-1 6 C-0.34 6.66 0.32 7.32 1 8 C0.34 8 -0.32 8 -1 8 C-1 7.34 -1 6.68 -1 6 Z " fill="#838095" transform="translate(12,63)"/>
<path d="M0 0 C1.23556641 0.01740234 1.23556641 0.01740234 2.49609375 0.03515625 C3.32238281 0.04417969 4.14867187 0.05320312 5 0.0625 C5.63808594 0.07410156 6.27617188 0.08570312 6.93359375 0.09765625 C6.93359375 0.42765625 6.93359375 0.75765625 6.93359375 1.09765625 C4.62359375 1.75765625 2.31359375 2.41765625 -0.06640625 3.09765625 C0.26359375 4.08765625 0.59359375 5.07765625 0.93359375 6.09765625 C-1.04640625 6.09765625 -3.02640625 6.09765625 -5.06640625 6.09765625 C-4.07640625 5.43765625 -3.08640625 4.77765625 -2.06640625 4.09765625 C-2.39640625 3.10765625 -2.72640625 2.11765625 -3.06640625 1.09765625 C-2.06640625 0.09765625 -2.06640625 0.09765625 0 0 Z " fill="#8C7C86" transform="translate(28.06640625,18.90234375)"/>
<path d="M0 0 C0.33 0.66 0.66 1.32 1 2 C1.66 2 2.32 2 3 2 C2.34 3.98 1.68 5.96 1 8 C0.34 8 -0.32 8 -1 8 C-1 8.99 -1 9.98 -1 11 C-1.66 10.67 -2.32 10.34 -3 10 C-2.67 9.01 -2.34 8.02 -2 7 C-1.34 7 -0.68 7 0 7 C0 4.69 0 2.38 0 0 Z M3 1 C5 2 5 2 5 2 Z " fill="#3B3555" transform="translate(37,57)"/>
<path d="M0 0 C2.875 -0.1875 2.875 -0.1875 6 0 C8 3 8 3 7.625 5.1875 C7.41875 5.785625 7.2125 6.38375 7 7 C6.01 5.35 5.02 3.7 4 2 C1.83125748 2.50603992 0.00032373 2.99983813 -2 4 C-1.34 2.68 -0.68 1.36 0 0 Z " fill="#55506D" transform="translate(21,57)"/>
<path d="M0 0 C0.89847656 0.07863281 1.79695313 0.15726563 2.72265625 0.23828125 C3.81900391 0.46064453 3.81900391 0.46064453 4.9375 0.6875 C5.2675 1.3475 5.5975 2.0075 5.9375 2.6875 C1.6475 2.6875 -2.6425 2.6875 -7.0625 2.6875 C-7.0625 2.0275 -7.0625 1.3675 -7.0625 0.6875 C-4.47149174 -0.60800413 -2.86825631 -0.27650816 0 0 Z " fill="#2D4665" transform="translate(22.0625,30.3125)"/>
<path d="M0 0 C-0.33 0.99 -0.66 1.98 -1 3 C-2.65 3.33 -4.3 3.66 -6 4 C-6.33 3.01 -6.66 2.02 -7 1 C-4.53721199 -0.231394 -2.7204945 -0.07159196 0 0 Z " fill="#CDB4AE" transform="translate(9,56)"/>
</svg>
